<?xml version="1.0" encoding="utf-8" standalone="no"?>
<!DOCTYPE svg PUBLIC "-//W3C//DTD SVG 1.1//EN"
  "http://www.w3.org/Graphics/SVG/1.1/DTD/svg11.dtd">
<svg xmlns:xlink="http://www.w3.org/1999/xlink" width="809.21125pt" height="513.157656pt" viewBox="0 0 809.21125 513.157656" xmlns="http://www.w3.org/2000/svg" version="1.1">
 <metadata>
  <rdf:RDF xmlns:dc="http://purl.org/dc/elements/1.1/" xmlns:cc="http://creativecommons.org/ns#" xmlns:rdf="http://www.w3.org/1999/02/22-rdf-syntax-ns#">
   <cc:Work>
    <dc:type rdf:resource="http://purl.org/dc/dcmitype/StillImage"/>
    <dc:date>2023-09-20T09:29:24.093050</dc:date>
    <dc:format>image/svg+xml</dc:format>
    <dc:creator>
     <cc:Agent>
      <dc:title>Matplotlib v3.5.0, https://matplotlib.org/</dc:title>
     </cc:Agent>
    </dc:creator>
   </cc:Work>
  </rdf:RDF>
 </metadata>
 <defs>
  <style type="text/css">*{stroke-linejoin: round; stroke-linecap: butt}</style>
 </defs>
 <g id="figure_1">
  <g id="patch_1">
   <path d="M 0 513.157656 
L 809.21125 513.157656 
L 809.21125 0 
L 0 0 
L 0 513.157656 
z
" style="fill: none"/>
  </g>
  <g id="axes_1">
   <g id="patch_2">
    <path d="M 111.415 450.438281 
L 781.015 450.438281 
L 781.015 15.558281 
L 111.415 15.558281 
z
" style="fill: #ffffff"/>
   </g>
   <g id="PolyCollection_1">
    <path d="M 111.415 339.489521 
L 111.415 421.518761 
L 115.135 423.801881 
L 118.855 423.258281 
L 122.575 422.388521 
L 126.295 421.301321 
L 130.015 420.105401 
L 133.735 418.855121 
L 137.455 417.550481 
L 141.175 416.191481 
L 144.895 414.778121 
L 148.615 413.310401 
L 152.335 411.788321 
L 156.055 410.211881 
L 159.775 408.581081 
L 163.495 406.895921 
L 167.215 405.210761 
L 170.935 403.471241 
L 174.655 401.731721 
L 178.375 399.937841 
L 182.095 398.198321 
L 185.815 396.404441 
L 189.535 394.664921 
L 193.255 392.871041 
L 196.975 391.131521 
L 200.695 389.337641 
L 204.415 387.598121 
L 208.135 385.858601 
L 211.855 384.173441 
L 215.575 382.433921 
L 219.295 380.748761 
L 223.015 379.063601 
L 226.735 377.432801 
L 230.455 375.747641 
L 234.175 374.116841 
L 237.895 372.486041 
L 241.615 370.909601 
L 245.335 369.333161 
L 249.055 367.756721 
L 252.775 366.180281 
L 256.495 364.658201 
L 260.215 363.136121 
L 263.935 361.614041 
L 267.655 360.146321 
L 271.375 358.678601 
L 275.095 357.210881 
L 278.815 355.743161 
L 282.535 354.329801 
L 286.255 352.862081 
L 289.975 351.503081 
L 293.695 350.089721 
L 297.415 348.730721 
L 301.135 347.371721 
L 304.855 346.012721 
L 308.575 344.653721 
L 312.295 343.349081 
L 316.015 342.044441 
L 319.735 340.739801 
L 323.455 339.435161 
L 327.175 338.184881 
L 330.895 336.880241 
L 334.615 335.629961 
L 338.335 334.379681 
L 342.055 333.183761 
L 345.775 331.933481 
L 349.495 330.737561 
L 353.215 329.541641 
L 356.935 328.345721 
L 360.655 327.149801 
L 364.375 326.008241 
L 368.095 324.812321 
L 371.815 323.670761 
L 375.535 322.529201 
L 379.255 321.387641 
L 382.975 320.300441 
L 386.695 319.158881 
L 390.415 318.071681 
L 394.135 316.984481 
L 397.855 315.897281 
L 401.575 314.810081 
L 405.295 313.722881 
L 409.015 312.635681 
L 412.735 311.602841 
L 416.455 310.570001 
L 420.175 309.537161 
L 423.895 308.504321 
L 427.615 307.471481 
L 431.335 306.438641 
L 435.055 305.460161 
L 438.775 304.427321 
L 442.495 303.448841 
L 446.215 302.470361 
L 449.935 301.491881 
L 453.655 300.513401 
L 457.375 299.534921 
L 461.095 298.556441 
L 464.815 297.632321 
L 468.535 296.653841 
L 472.255 295.729721 
L 475.975 294.805601 
L 479.695 293.881481 
L 483.415 292.957361 
L 487.135 292.033241 
L 490.855 291.109121 
L 494.575 290.239361 
L 498.295 289.315241 
L 502.015 288.445481 
L 505.735 287.575721 
L 509.455 286.651601 
L 513.175 285.781841 
L 516.895 284.912081 
L 520.615 284.042321 
L 524.335 283.226921 
L 528.055 282.357161 
L 531.775 281.541761 
L 535.495 280.672001 
L 539.215 279.856601 
L 542.935 279.041201 
L 546.655 278.225801 
L 550.375 277.410401 
L 554.095 276.595001 
L 557.815 275.779601 
L 561.535 274.964201 
L 565.255 274.203161 
L 568.975 273.387761 
L 572.695 272.626721 
L 576.415 271.811321 
L 580.135 271.050281 
L 583.855 270.289241 
L 587.575 269.528201 
L 591.295 268.767161 
L 595.015 268.006121 
L 598.735 267.245081 
L 602.455 266.484041 
L 606.175 265.777361 
L 609.895 265.016321 
L 613.615 264.309641 
L 617.335 263.548601 
L 621.055 262.841921 
L 624.775 262.135241 
L 628.495 261.428561 
L 632.215 260.721881 
L 635.935 260.015201 
L 639.655 259.308521 
L 643.375 258.601841 
L 647.095 257.949521 
L 650.815 257.242841 
L 654.535 256.536161 
L 658.255 255.883841 
L 661.975 255.231521 
L 665.695 254.524841 
L 669.415 253.872521 
L 673.135 253.220201 
L 676.855 252.567881 
L 680.575 251.915561 
L 684.295 251.263241 
L 688.015 250.610921 
L 691.735 249.958601 
L 695.455 249.360641 
L 699.175 248.708321 
L 702.895 248.056001 
L 706.615 247.458041 
L 710.335 246.805721 
L 714.055 246.207761 
L 717.775 245.609801 
L 721.495 244.957481 
L 725.215 244.359521 
L 728.935 243.761561 
L 732.655 243.163601 
L 736.375 242.565641 
L 740.095 241.967681 
L 743.815 241.369721 
L 747.535 240.771761 
L 751.255 240.173801 
L 754.975 239.630201 
L 758.695 239.032241 
L 762.415 238.434281 
L 766.135 237.890681 
L 769.855 237.292721 
L 773.575 236.749121 
L 777.295 236.151161 
L 781.015 235.607561 
L 781.015 75.680441 
L 781.015 75.680441 
L 777.295 76.495841 
L 773.575 77.311241 
L 769.855 78.126641 
L 766.135 78.996401 
L 762.415 79.811801 
L 758.695 80.627201 
L 754.975 81.496961 
L 751.255 82.312361 
L 747.535 83.182121 
L 743.815 83.997521 
L 740.095 84.867281 
L 736.375 85.737041 
L 732.655 86.552441 
L 728.935 87.422201 
L 725.215 88.291961 
L 721.495 89.216081 
L 717.775 90.085841 
L 714.055 90.955601 
L 710.335 91.825361 
L 706.615 92.749481 
L 702.895 93.619241 
L 699.175 94.543361 
L 695.455 95.413121 
L 691.735 96.337241 
L 688.015 97.261361 
L 684.295 98.185481 
L 680.575 99.109601 
L 676.855 100.033721 
L 673.135 100.957841 
L 669.415 101.881961 
L 665.695 102.860441 
L 661.975 103.784561 
L 658.255 104.763041 
L 654.535 105.741521 
L 650.815 106.665641 
L 647.095 107.644121 
L 643.375 108.622601 
L 639.655 109.655441 
L 635.935 110.633921 
L 632.215 111.612401 
L 628.495 112.590881 
L 624.775 113.623721 
L 621.055 114.656561 
L 617.335 115.689401 
L 613.615 116.667881 
L 609.895 117.700721 
L 606.175 118.733561 
L 602.455 119.820761 
L 598.735 120.853601 
L 595.015 121.940801 
L 591.295 122.973641 
L 587.575 124.060841 
L 583.855 125.148041 
L 580.135 126.235241 
L 576.415 127.322441 
L 572.695 128.409641 
L 568.975 129.496841 
L 565.255 130.638401 
L 561.535 131.725601 
L 557.815 132.867161 
L 554.095 134.008721 
L 550.375 135.150281 
L 546.655 136.291841 
L 542.935 137.433401 
L 539.215 138.574961 
L 535.495 139.770881 
L 531.775 140.966801 
L 528.055 142.162721 
L 524.335 143.304281 
L 520.615 144.554561 
L 516.895 145.750481 
L 513.175 146.946401 
L 509.455 148.142321 
L 505.735 149.392601 
L 502.015 150.642881 
L 498.295 151.893161 
L 494.575 153.143441 
L 490.855 154.393721 
L 487.135 155.644001 
L 483.415 156.948641 
L 479.695 158.253281 
L 475.975 159.503561 
L 472.255 160.808201 
L 468.535 162.167201 
L 464.815 163.471841 
L 461.095 164.776481 
L 457.375 166.135481 
L 453.655 167.494481 
L 449.935 168.853481 
L 446.215 170.212481 
L 442.495 171.571481 
L 438.775 172.930481 
L 435.055 174.343841 
L 431.335 175.757201 
L 427.615 177.170561 
L 423.895 178.583921 
L 420.175 179.997281 
L 416.455 181.465001 
L 412.735 182.932721 
L 409.015 184.400441 
L 405.295 185.868161 
L 401.575 187.335881 
L 397.855 188.857961 
L 394.135 190.325681 
L 390.415 191.847761 
L 386.695 193.424201 
L 382.975 194.946281 
L 379.255 196.468361 
L 375.535 198.044801 
L 371.815 199.621241 
L 368.095 201.252041 
L 364.375 202.828481 
L 360.655 204.459281 
L 356.935 206.090081 
L 353.215 207.720881 
L 349.495 209.406041 
L 345.775 211.091201 
L 342.055 212.776361 
L 338.335 214.461521 
L 334.615 216.146681 
L 330.895 217.886201 
L 327.175 219.625721 
L 323.455 221.419601 
L 319.735 223.159121 
L 316.015 224.953001 
L 312.295 226.746881 
L 308.575 228.595121 
L 304.855 230.443361 
L 301.135 232.291601 
L 297.415 234.194201 
L 293.695 236.042441 
L 289.975 237.999401 
L 286.255 239.902001 
L 282.535 241.858961 
L 278.815 243.870281 
L 275.095 245.881601 
L 271.375 247.892921 
L 267.655 249.904241 
L 263.935 251.969921 
L 260.215 254.035601 
L 256.495 256.155641 
L 252.775 258.275681 
L 249.055 260.450081 
L 245.335 262.570121 
L 241.615 264.798881 
L 237.895 267.027641 
L 234.175 269.256401 
L 230.455 271.539521 
L 226.735 273.822641 
L 223.015 276.105761 
L 219.295 278.443241 
L 215.575 280.835081 
L 211.855 283.172561 
L 208.135 285.564401 
L 204.415 288.010601 
L 200.695 290.402441 
L 196.975 292.848641 
L 193.255 295.349201 
L 189.535 297.795401 
L 185.815 300.295961 
L 182.095 302.796521 
L 178.375 305.242721 
L 174.655 307.743281 
L 170.935 310.189481 
L 167.215 312.635681 
L 163.495 315.027521 
L 159.775 317.365001 
L 156.055 319.648121 
L 152.335 321.876881 
L 148.615 323.996921 
L 144.895 326.116961 
L 141.175 328.128281 
L 137.455 330.085241 
L 133.735 332.042201 
L 130.015 333.890441 
L 126.295 335.738681 
L 122.575 337.423841 
L 118.855 339.054641 
L 115.135 340.304921 
L 111.415 339.489521 
z
" clip-path="url(#p3c38ed54de)" style="fill: #f4f4f2"/>
   </g>
   <g id="PolyCollection_2">
    <path d="M 111.415 366.180281 
L 111.415 399.774761 
L 115.135 401.949161 
L 118.855 401.296841 
L 122.575 400.264001 
L 126.295 399.068081 
L 130.015 397.763441 
L 133.735 396.350081 
L 137.455 394.882361 
L 141.175 393.360281 
L 144.895 391.838201 
L 148.615 390.207401 
L 152.335 388.522241 
L 156.055 386.837081 
L 159.775 385.043201 
L 163.495 383.194961 
L 167.215 381.346721 
L 170.935 379.444121 
L 174.655 377.487161 
L 178.375 375.530201 
L 182.095 373.627601 
L 185.815 371.670641 
L 189.535 369.713681 
L 193.255 367.756721 
L 196.975 365.854121 
L 200.695 363.897161 
L 204.415 361.994561 
L 208.135 360.091961 
L 211.855 358.189361 
L 215.575 356.341121 
L 219.295 354.438521 
L 223.015 352.590281 
L 226.735 350.796401 
L 230.455 349.002521 
L 234.175 347.208641 
L 237.895 345.414761 
L 241.615 343.675241 
L 245.335 341.935721 
L 249.055 340.196201 
L 252.775 338.511041 
L 256.495 336.825881 
L 260.215 335.140721 
L 263.935 333.509921 
L 267.655 331.879121 
L 271.375 330.248321 
L 275.095 328.617521 
L 278.815 327.041081 
L 282.535 325.464641 
L 286.255 323.942561 
L 289.975 322.366121 
L 293.695 320.844041 
L 297.415 319.376321 
L 301.135 317.854241 
L 304.855 316.386521 
L 308.575 314.918801 
L 312.295 313.505441 
L 316.015 312.037721 
L 319.735 310.624361 
L 323.455 309.211001 
L 327.175 307.852001 
L 330.895 306.438641 
L 334.615 305.079641 
L 338.335 303.720641 
L 342.055 302.361641 
L 345.775 301.057001 
L 349.495 299.698001 
L 353.215 298.393361 
L 356.935 297.088721 
L 360.655 295.784081 
L 364.375 294.533801 
L 368.095 293.229161 
L 371.815 291.978881 
L 375.535 290.728601 
L 379.255 289.478321 
L 382.975 288.282401 
L 386.695 287.032121 
L 390.415 285.836201 
L 394.135 284.640281 
L 397.855 283.444361 
L 401.575 282.248441 
L 405.295 281.106881 
L 409.015 279.910961 
L 412.735 278.769401 
L 416.455 277.627841 
L 420.175 276.486281 
L 423.895 275.344721 
L 427.615 274.257521 
L 431.335 273.115961 
L 435.055 272.028761 
L 438.775 270.941561 
L 442.495 269.854361 
L 446.215 268.767161 
L 449.935 267.679961 
L 453.655 266.592761 
L 457.375 265.559921 
L 461.095 264.527081 
L 464.815 263.439881 
L 468.535 262.407041 
L 472.255 261.374201 
L 475.975 260.395721 
L 479.695 259.362881 
L 483.415 258.330041 
L 487.135 257.351561 
L 490.855 256.373081 
L 494.575 255.340241 
L 498.295 254.361761 
L 502.015 253.383281 
L 505.735 252.404801 
L 509.455 251.480681 
L 513.175 250.502201 
L 516.895 249.578081 
L 520.615 248.599601 
L 524.335 247.675481 
L 528.055 246.751361 
L 531.775 245.827241 
L 535.495 244.903121 
L 539.215 243.979001 
L 542.935 243.109241 
L 546.655 242.185121 
L 550.375 241.261001 
L 554.095 240.391241 
L 557.815 239.521481 
L 561.535 238.651721 
L 565.255 237.781961 
L 568.975 236.912201 
L 572.695 236.042441 
L 576.415 235.172681 
L 580.135 234.357281 
L 583.855 233.487521 
L 587.575 232.672121 
L 591.295 231.802361 
L 595.015 230.986961 
L 598.735 230.171561 
L 602.455 229.356161 
L 606.175 228.540761 
L 609.895 227.725361 
L 613.615 226.909961 
L 617.335 226.148921 
L 621.055 225.333521 
L 624.775 224.572481 
L 628.495 223.757081 
L 632.215 222.996041 
L 635.935 222.235001 
L 639.655 221.473961 
L 643.375 220.658561 
L 647.095 219.951881 
L 650.815 219.190841 
L 654.535 218.429801 
L 658.255 217.668761 
L 661.975 216.962081 
L 665.695 216.201041 
L 669.415 215.494361 
L 673.135 214.733321 
L 676.855 214.026641 
L 680.575 213.319961 
L 684.295 212.613281 
L 688.015 211.906601 
L 691.735 211.199921 
L 695.455 210.493241 
L 699.175 209.786561 
L 702.895 209.079881 
L 706.615 208.427561 
L 710.335 207.720881 
L 714.055 207.014201 
L 717.775 206.361881 
L 721.495 205.709561 
L 725.215 205.002881 
L 728.935 204.350561 
L 732.655 203.698241 
L 736.375 203.045921 
L 740.095 202.393601 
L 743.815 201.686921 
L 747.535 201.088961 
L 751.255 200.436641 
L 754.975 199.784321 
L 758.695 199.132001 
L 762.415 198.479681 
L 766.135 197.881721 
L 769.855 197.229401 
L 773.575 196.631441 
L 777.295 195.979121 
L 781.015 195.381161 
L 781.015 130.257881 
L 781.015 130.257881 
L 777.295 130.964561 
L 773.575 131.671241 
L 769.855 132.432281 
L 766.135 133.138961 
L 762.415 133.900001 
L 758.695 134.606681 
L 754.975 135.367721 
L 751.255 136.128761 
L 747.535 136.835441 
L 743.815 137.596481 
L 740.095 138.357521 
L 736.375 139.118561 
L 732.655 139.879601 
L 728.935 140.695001 
L 725.215 141.456041 
L 721.495 142.217081 
L 717.775 142.978121 
L 714.055 143.793521 
L 710.335 144.608921 
L 706.615 145.369961 
L 702.895 146.185361 
L 699.175 147.000761 
L 695.455 147.761801 
L 691.735 148.577201 
L 688.015 149.392601 
L 684.295 150.208001 
L 680.575 151.077761 
L 676.855 151.893161 
L 673.135 152.708561 
L 669.415 153.578321 
L 665.695 154.393721 
L 661.975 155.263481 
L 658.255 156.078881 
L 654.535 156.948641 
L 650.815 157.818401 
L 647.095 158.688161 
L 643.375 159.557921 
L 639.655 160.427681 
L 635.935 161.351801 
L 632.215 162.221561 
L 628.495 163.091321 
L 624.775 164.015441 
L 621.055 164.939561 
L 617.335 165.863681 
L 613.615 166.787801 
L 609.895 167.657561 
L 606.175 168.636041 
L 602.455 169.560161 
L 598.735 170.484281 
L 595.015 171.462761 
L 591.295 172.386881 
L 587.575 173.365361 
L 583.855 174.343841 
L 580.135 175.267961 
L 576.415 176.300801 
L 572.695 177.279281 
L 568.975 178.257761 
L 565.255 179.236241 
L 561.535 180.269081 
L 557.815 181.247561 
L 554.095 182.280401 
L 550.375 183.313241 
L 546.655 184.346081 
L 542.935 185.378921 
L 539.215 186.411761 
L 535.495 187.444601 
L 531.775 188.531801 
L 528.055 189.564641 
L 524.335 190.651841 
L 520.615 191.739041 
L 516.895 192.771881 
L 513.175 193.859081 
L 509.455 195.000641 
L 505.735 196.087841 
L 502.015 197.229401 
L 498.295 198.316601 
L 494.575 199.458161 
L 490.855 200.599721 
L 487.135 201.741281 
L 483.415 202.882841 
L 479.695 204.024401 
L 475.975 205.220321 
L 472.255 206.361881 
L 468.535 207.557801 
L 464.815 208.753721 
L 461.095 209.949641 
L 457.375 211.145561 
L 453.655 212.341481 
L 449.935 213.591761 
L 446.215 214.787681 
L 442.495 216.037961 
L 438.775 217.288241 
L 435.055 218.538521 
L 431.335 219.788801 
L 427.615 221.093441 
L 423.895 222.398081 
L 420.175 223.648361 
L 416.455 224.953001 
L 412.735 226.257641 
L 409.015 227.616641 
L 405.295 228.921281 
L 401.575 230.280281 
L 397.855 231.639281 
L 394.135 232.998281 
L 390.415 234.357281 
L 386.695 235.716281 
L 382.975 237.129641 
L 379.255 238.543001 
L 375.535 239.956361 
L 371.815 241.369721 
L 368.095 242.837441 
L 364.375 244.250801 
L 360.655 245.718521 
L 356.935 247.186241 
L 353.215 248.708321 
L 349.495 250.176041 
L 345.775 251.698121 
L 342.055 253.220201 
L 338.335 254.742281 
L 334.615 256.318721 
L 330.895 257.895161 
L 327.175 259.471601 
L 323.455 261.048041 
L 319.735 262.624481 
L 316.015 264.255281 
L 312.295 265.886081 
L 308.575 267.571241 
L 304.855 269.202041 
L 301.135 270.887201 
L 297.415 272.626721 
L 293.695 274.311881 
L 289.975 276.051401 
L 286.255 277.790921 
L 282.535 279.584801 
L 278.815 281.378681 
L 275.095 283.172561 
L 271.375 285.020801 
L 267.655 286.869041 
L 263.935 288.717281 
L 260.215 290.619881 
L 256.495 292.522481 
L 252.775 294.425081 
L 249.055 296.382041 
L 245.335 298.339001 
L 241.615 300.295961 
L 237.895 302.307281 
L 234.175 304.372961 
L 230.455 306.384281 
L 226.735 308.449961 
L 223.015 310.570001 
L 219.295 312.690041 
L 215.575 314.810081 
L 211.855 316.930121 
L 208.135 319.104521 
L 204.415 321.278921 
L 200.695 323.507681 
L 196.975 325.682081 
L 193.255 327.910841 
L 189.535 330.139601 
L 185.815 332.368361 
L 182.095 334.597121 
L 178.375 336.880241 
L 174.655 339.109001 
L 170.935 341.283401 
L 167.215 343.512161 
L 163.495 345.632201 
L 159.775 347.752241 
L 156.055 349.817921 
L 152.335 351.774881 
L 148.615 353.731841 
L 144.895 355.580081 
L 141.175 357.373961 
L 137.455 359.113481 
L 133.735 360.853001 
L 130.015 362.483801 
L 126.295 364.060241 
L 122.575 365.527961 
L 118.855 366.832601 
L 115.135 367.811081 
L 111.415 366.180281 
z
" clip-path="url(#p3c38ed54de)" style="fill: #e8e8e8"/>
   </g>
   <g id="matplotlib.axis_1">
    <g id="xtick_1">
     <g id="line2d_1">
      <defs>
       <path id="mafdcb6cd72" d="M 0 0 
L 0 3.5 
" style="stroke: #000000; stroke-width: 0.8"/>
      </defs>
      <g>
       <use xlink:href="#mafdcb6cd72" x="111.415" y="450.438281" style="stroke: #000000; stroke-width: 0.8"/>
      </g>
     </g>
     <g id="text_1">
      <!-- 0 -->
      <g transform="translate(104.41625 474.154844)scale(0.22 -0.22)">
       <defs>
        <path id="DejaVuSans-30" d="M 2034 4250 
Q 1547 4250 1301 3770 
Q 1056 3291 1056 2328 
Q 1056 1369 1301 889 
Q 1547 409 2034 409 
Q 2525 409 2770 889 
Q 3016 1369 3016 2328 
Q 3016 3291 2770 3770 
Q 2525 4250 2034 4250 
z
M 2034 4750 
Q 2819 4750 3233 4129 
Q 3647 3509 3647 2328 
Q 3647 1150 3233 529 
Q 2819 -91 2034 -91 
Q 1250 -91 836 529 
Q 422 1150 422 2328 
Q 422 3509 836 4129 
Q 1250 4750 2034 4750 
z
" transform="scale(0.015625)"/>
       </defs>
       <use xlink:href="#DejaVuSans-30"/>
      </g>
     </g>
    </g>
    <g id="xtick_2">
     <g id="line2d_2">
      <g>
       <use xlink:href="#mafdcb6cd72" x="185.815" y="450.438281" style="stroke: #000000; stroke-width: 0.8"/>
      </g>
     </g>
     <g id="text_2">
      <!-- 20 -->
      <g transform="translate(171.8175 474.154844)scale(0.22 -0.22)">
       <defs>
        <path id="DejaVuSans-32" d="M 1228 531 
L 3431 531 
L 3431 0 
L 469 0 
L 469 531 
Q 828 903 1448 1529 
Q 2069 2156 2228 2338 
Q 2531 2678 2651 2914 
Q 2772 3150 2772 3378 
Q 2772 3750 2511 3984 
Q 2250 4219 1831 4219 
Q 1534 4219 1204 4116 
Q 875 4013 500 3803 
L 500 4441 
Q 881 4594 1212 4672 
Q 1544 4750 1819 4750 
Q 2544 4750 2975 4387 
Q 3406 4025 3406 3419 
Q 3406 3131 3298 2873 
Q 3191 2616 2906 2266 
Q 2828 2175 2409 1742 
Q 1991 1309 1228 531 
z
" transform="scale(0.015625)"/>
       </defs>
       <use xlink:href="#DejaVuSans-32"/>
       <use xlink:href="#DejaVuSans-30" x="63.623047"/>
      </g>
     </g>
    </g>
    <g id="xtick_3">
     <g id="line2d_3">
      <g>
       <use xlink:href="#mafdcb6cd72" x="260.215" y="450.438281" style="stroke: #000000; stroke-width: 0.8"/>
      </g>
     </g>
     <g id="text_3">
      <!-- 40 -->
      <g transform="translate(246.2175 474.154844)scale(0.22 -0.22)">
       <defs>
        <path id="DejaVuSans-34" d="M 2419 4116 
L 825 1625 
L 2419 1625 
L 2419 4116 
z
M 2253 4666 
L 3047 4666 
L 3047 1625 
L 3713 1625 
L 3713 1100 
L 3047 1100 
L 3047 0 
L 2419 0 
L 2419 1100 
L 313 1100 
L 313 1709 
L 2253 4666 
z
" transform="scale(0.015625)"/>
       </defs>
       <use xlink:href="#DejaVuSans-34"/>
       <use xlink:href="#DejaVuSans-30" x="63.623047"/>
      </g>
     </g>
    </g>
    <g id="xtick_4">
     <g id="line2d_4">
      <g>
       <use xlink:href="#mafdcb6cd72" x="334.615" y="450.438281" style="stroke: #000000; stroke-width: 0.8"/>
      </g>
     </g>
     <g id="text_4">
      <!-- 60 -->
      <g transform="translate(320.6175 474.154844)scale(0.22 -0.22)">
       <defs>
        <path id="DejaVuSans-36" d="M 2113 2584 
Q 1688 2584 1439 2293 
Q 1191 2003 1191 1497 
Q 1191 994 1439 701 
Q 1688 409 2113 409 
Q 2538 409 2786 701 
Q 3034 994 3034 1497 
Q 3034 2003 2786 2293 
Q 2538 2584 2113 2584 
z
M 3366 4563 
L 3366 3988 
Q 3128 4100 2886 4159 
Q 2644 4219 2406 4219 
Q 1781 4219 1451 3797 
Q 1122 3375 1075 2522 
Q 1259 2794 1537 2939 
Q 1816 3084 2150 3084 
Q 2853 3084 3261 2657 
Q 3669 2231 3669 1497 
Q 3669 778 3244 343 
Q 2819 -91 2113 -91 
Q 1303 -91 875 529 
Q 447 1150 447 2328 
Q 447 3434 972 4092 
Q 1497 4750 2381 4750 
Q 2619 4750 2861 4703 
Q 3103 4656 3366 4563 
z
" transform="scale(0.015625)"/>
       </defs>
       <use xlink:href="#DejaVuSans-36"/>
       <use xlink:href="#DejaVuSans-30" x="63.623047"/>
      </g>
     </g>
    </g>
    <g id="xtick_5">
     <g id="line2d_5">
      <g>
       <use xlink:href="#mafdcb6cd72" x="409.015" y="450.438281" style="stroke: #000000; stroke-width: 0.8"/>
      </g>
     </g>
     <g id="text_5">
      <!-- 80 -->
      <g transform="translate(395.0175 474.154844)scale(0.22 -0.22)">
       <defs>
        <path id="DejaVuSans-38" d="M 2034 2216 
Q 1584 2216 1326 1975 
Q 1069 1734 1069 1313 
Q 1069 891 1326 650 
Q 1584 409 2034 409 
Q 2484 409 2743 651 
Q 3003 894 3003 1313 
Q 3003 1734 2745 1975 
Q 2488 2216 2034 2216 
z
M 1403 2484 
Q 997 2584 770 2862 
Q 544 3141 544 3541 
Q 544 4100 942 4425 
Q 1341 4750 2034 4750 
Q 2731 4750 3128 4425 
Q 3525 4100 3525 3541 
Q 3525 3141 3298 2862 
Q 3072 2584 2669 2484 
Q 3125 2378 3379 2068 
Q 3634 1759 3634 1313 
Q 3634 634 3220 271 
Q 2806 -91 2034 -91 
Q 1263 -91 848 271 
Q 434 634 434 1313 
Q 434 1759 690 2068 
Q 947 2378 1403 2484 
z
M 1172 3481 
Q 1172 3119 1398 2916 
Q 1625 2713 2034 2713 
Q 2441 2713 2670 2916 
Q 2900 3119 2900 3481 
Q 2900 3844 2670 4047 
Q 2441 4250 2034 4250 
Q 1625 4250 1398 4047 
Q 1172 3844 1172 3481 
z
" transform="scale(0.015625)"/>
       </defs>
       <use xlink:href="#DejaVuSans-38"/>
       <use xlink:href="#DejaVuSans-30" x="63.623047"/>
      </g>
     </g>
    </g>
    <g id="xtick_6">
     <g id="line2d_6">
      <g>
       <use xlink:href="#mafdcb6cd72" x="483.415" y="450.438281" style="stroke: #000000; stroke-width: 0.8"/>
      </g>
     </g>
     <g id="text_6">
      <!-- 100 -->
      <g transform="translate(462.41875 474.154844)scale(0.22 -0.22)">
       <defs>
        <path id="DejaVuSans-31" d="M 794 531 
L 1825 531 
L 1825 4091 
L 703 3866 
L 703 4441 
L 1819 4666 
L 2450 4666 
L 2450 531 
L 3481 531 
L 3481 0 
L 794 0 
L 794 531 
z
" transform="scale(0.015625)"/>
       </defs>
       <use xlink:href="#DejaVuSans-31"/>
       <use xlink:href="#DejaVuSans-30" x="63.623047"/>
       <use xlink:href="#DejaVuSans-30" x="127.246094"/>
      </g>
     </g>
    </g>
    <g id="xtick_7">
     <g id="line2d_7">
      <g>
       <use xlink:href="#mafdcb6cd72" x="557.815" y="450.438281" style="stroke: #000000; stroke-width: 0.8"/>
      </g>
     </g>
     <g id="text_7">
      <!-- 120 -->
      <g transform="translate(536.81875 474.154844)scale(0.22 -0.22)">
       <use xlink:href="#DejaVuSans-31"/>
       <use xlink:href="#DejaVuSans-32" x="63.623047"/>
       <use xlink:href="#DejaVuSans-30" x="127.246094"/>
      </g>
     </g>
    </g>
    <g id="xtick_8">
     <g id="line2d_8">
      <g>
       <use xlink:href="#mafdcb6cd72" x="632.215" y="450.438281" style="stroke: #000000; stroke-width: 0.8"/>
      </g>
     </g>
     <g id="text_8">
      <!-- 140 -->
      <g transform="translate(611.21875 474.154844)scale(0.22 -0.22)">
       <use xlink:href="#DejaVuSans-31"/>
       <use xlink:href="#DejaVuSans-34" x="63.623047"/>
       <use xlink:href="#DejaVuSans-30" x="127.246094"/>
      </g>
     </g>
    </g>
    <g id="xtick_9">
     <g id="line2d_9">
      <g>
       <use xlink:href="#mafdcb6cd72" x="706.615" y="450.438281" style="stroke: #000000; stroke-width: 0.8"/>
      </g>
     </g>
     <g id="text_9">
      <!-- 160 -->
      <g transform="translate(685.61875 474.154844)scale(0.22 -0.22)">
       <use xlink:href="#DejaVuSans-31"/>
       <use xlink:href="#DejaVuSans-36" x="63.623047"/>
       <use xlink:href="#DejaVuSans-30" x="127.246094"/>
      </g>
     </g>
    </g>
    <g id="xtick_10">
     <g id="line2d_10">
      <g>
       <use xlink:href="#mafdcb6cd72" x="781.015" y="450.438281" style="stroke: #000000; stroke-width: 0.8"/>
      </g>
     </g>
     <g id="text_10">
      <!-- 180 -->
      <g transform="translate(760.01875 474.154844)scale(0.22 -0.22)">
       <use xlink:href="#DejaVuSans-31"/>
       <use xlink:href="#DejaVuSans-38" x="63.623047"/>
       <use xlink:href="#DejaVuSans-30" x="127.246094"/>
      </g>
     </g>
    </g>
    <g id="text_11">
     <!-- Age in days -->
     <g transform="translate(376.1125 500.966406)scale(0.24 -0.24)">
      <defs>
       <path id="DejaVuSans-41" d="M 2188 4044 
L 1331 1722 
L 3047 1722 
L 2188 4044 
z
M 1831 4666 
L 2547 4666 
L 4325 0 
L 3669 0 
L 3244 1197 
L 1141 1197 
L 716 0 
L 50 0 
L 1831 4666 
z
" transform="scale(0.015625)"/>
       <path id="DejaVuSans-67" d="M 2906 1791 
Q 2906 2416 2648 2759 
Q 2391 3103 1925 3103 
Q 1463 3103 1205 2759 
Q 947 2416 947 1791 
Q 947 1169 1205 825 
Q 1463 481 1925 481 
Q 2391 481 2648 825 
Q 2906 1169 2906 1791 
z
M 3481 434 
Q 3481 -459 3084 -895 
Q 2688 -1331 1869 -1331 
Q 1566 -1331 1297 -1286 
Q 1028 -1241 775 -1147 
L 775 -588 
Q 1028 -725 1275 -790 
Q 1522 -856 1778 -856 
Q 2344 -856 2625 -561 
Q 2906 -266 2906 331 
L 2906 616 
Q 2728 306 2450 153 
Q 2172 0 1784 0 
Q 1141 0 747 490 
Q 353 981 353 1791 
Q 353 2603 747 3093 
Q 1141 3584 1784 3584 
Q 2172 3584 2450 3431 
Q 2728 3278 2906 2969 
L 2906 3500 
L 3481 3500 
L 3481 434 
z
" transform="scale(0.015625)"/>
       <path id="DejaVuSans-65" d="M 3597 1894 
L 3597 1613 
L 953 1613 
Q 991 1019 1311 708 
Q 1631 397 2203 397 
Q 2534 397 2845 478 
Q 3156 559 3463 722 
L 3463 178 
Q 3153 47 2828 -22 
Q 2503 -91 2169 -91 
Q 1331 -91 842 396 
Q 353 884 353 1716 
Q 353 2575 817 3079 
Q 1281 3584 2069 3584 
Q 2775 3584 3186 3129 
Q 3597 2675 3597 1894 
z
M 3022 2063 
Q 3016 2534 2758 2815 
Q 2500 3097 2075 3097 
Q 1594 3097 1305 2825 
Q 1016 2553 972 2059 
L 3022 2063 
z
" transform="scale(0.015625)"/>
       <path id="DejaVuSans-20" transform="scale(0.015625)"/>
       <path id="DejaVuSans-69" d="M 603 3500 
L 1178 3500 
L 1178 0 
L 603 0 
L 603 3500 
z
M 603 4863 
L 1178 4863 
L 1178 4134 
L 603 4134 
L 603 4863 
z
" transform="scale(0.015625)"/>
       <path id="DejaVuSans-6e" d="M 3513 2113 
L 3513 0 
L 2938 0 
L 2938 2094 
Q 2938 2591 2744 2837 
Q 2550 3084 2163 3084 
Q 1697 3084 1428 2787 
Q 1159 2491 1159 1978 
L 1159 0 
L 581 0 
L 581 3500 
L 1159 3500 
L 1159 2956 
Q 1366 3272 1645 3428 
Q 1925 3584 2291 3584 
Q 2894 3584 3203 3211 
Q 3513 2838 3513 2113 
z
" transform="scale(0.015625)"/>
       <path id="DejaVuSans-64" d="M 2906 2969 
L 2906 4863 
L 3481 4863 
L 3481 0 
L 2906 0 
L 2906 525 
Q 2725 213 2448 61 
Q 2172 -91 1784 -91 
Q 1150 -91 751 415 
Q 353 922 353 1747 
Q 353 2572 751 3078 
Q 1150 3584 1784 3584 
Q 2172 3584 2448 3432 
Q 2725 3281 2906 2969 
z
M 947 1747 
Q 947 1113 1208 752 
Q 1469 391 1925 391 
Q 2381 391 2643 752 
Q 2906 1113 2906 1747 
Q 2906 2381 2643 2742 
Q 2381 3103 1925 3103 
Q 1469 3103 1208 2742 
Q 947 2381 947 1747 
z
" transform="scale(0.015625)"/>
       <path id="DejaVuSans-61" d="M 2194 1759 
Q 1497 1759 1228 1600 
Q 959 1441 959 1056 
Q 959 750 1161 570 
Q 1363 391 1709 391 
Q 2188 391 2477 730 
Q 2766 1069 2766 1631 
L 2766 1759 
L 2194 1759 
z
M 3341 1997 
L 3341 0 
L 2766 0 
L 2766 531 
Q 2569 213 2275 61 
Q 1981 -91 1556 -91 
Q 1019 -91 701 211 
Q 384 513 384 1019 
Q 384 1609 779 1909 
Q 1175 2209 1959 2209 
L 2766 2209 
L 2766 2266 
Q 2766 2663 2505 2880 
Q 2244 3097 1772 3097 
Q 1472 3097 1187 3025 
Q 903 2953 641 2809 
L 641 3341 
Q 956 3463 1253 3523 
Q 1550 3584 1831 3584 
Q 2591 3584 2966 3190 
Q 3341 2797 3341 1997 
z
" transform="scale(0.015625)"/>
       <path id="DejaVuSans-79" d="M 2059 -325 
Q 1816 -950 1584 -1140 
Q 1353 -1331 966 -1331 
L 506 -1331 
L 506 -850 
L 844 -850 
Q 1081 -850 1212 -737 
Q 1344 -625 1503 -206 
L 1606 56 
L 191 3500 
L 800 3500 
L 1894 763 
L 2988 3500 
L 3597 3500 
L 2059 -325 
z
" transform="scale(0.015625)"/>
       <path id="DejaVuSans-73" d="M 2834 3397 
L 2834 2853 
Q 2591 2978 2328 3040 
Q 2066 3103 1784 3103 
Q 1356 3103 1142 2972 
Q 928 2841 928 2578 
Q 928 2378 1081 2264 
Q 1234 2150 1697 2047 
L 1894 2003 
Q 2506 1872 2764 1633 
Q 3022 1394 3022 966 
Q 3022 478 2636 193 
Q 2250 -91 1575 -91 
Q 1294 -91 989 -36 
Q 684 19 347 128 
L 347 722 
Q 666 556 975 473 
Q 1284 391 1588 391 
Q 1994 391 2212 530 
Q 2431 669 2431 922 
Q 2431 1156 2273 1281 
Q 2116 1406 1581 1522 
L 1381 1569 
Q 847 1681 609 1914 
Q 372 2147 372 2553 
Q 372 3047 722 3315 
Q 1072 3584 1716 3584 
Q 2034 3584 2315 3537 
Q 2597 3491 2834 3397 
z
" transform="scale(0.015625)"/>
      </defs>
      <use xlink:href="#DejaVuSans-41"/>
      <use xlink:href="#DejaVuSans-67" x="68.408203"/>
      <use xlink:href="#DejaVuSans-65" x="131.884766"/>
      <use xlink:href="#DejaVuSans-20" x="193.408203"/>
      <use xlink:href="#DejaVuSans-69" x="225.195312"/>
      <use xlink:href="#DejaVuSans-6e" x="252.978516"/>
      <use xlink:href="#DejaVuSans-20" x="316.357422"/>
      <use xlink:href="#DejaVuSans-64" x="348.144531"/>
      <use xlink:href="#DejaVuSans-61" x="411.621094"/>
      <use xlink:href="#DejaVuSans-79" x="472.900391"/>
      <use xlink:href="#DejaVuSans-73" x="532.080078"/>
     </g>
    </g>
   </g>
   <g id="matplotlib.axis_2">
    <g id="ytick_1">
     <g id="line2d_11">
      <defs>
       <path id="m75d7fd3246" d="M 0 0 
L -3.5 0 
" style="stroke: #000000; stroke-width: 0.8"/>
      </defs>
      <g>
       <use xlink:href="#m75d7fd3246" x="111.415" y="450.438281" style="stroke: #000000; stroke-width: 0.8"/>
      </g>
     </g>
     <g id="text_12">
      <!-- 2000 -->
      <g transform="translate(48.425 458.796562)scale(0.22 -0.22)">
       <use xlink:href="#DejaVuSans-32"/>
       <use xlink:href="#DejaVuSans-30" x="63.623047"/>
       <use xlink:href="#DejaVuSans-30" x="127.246094"/>
       <use xlink:href="#DejaVuSans-30" x="190.869141"/>
      </g>
     </g>
    </g>
    <g id="ytick_2">
     <g id="line2d_12">
      <g>
       <use xlink:href="#m75d7fd3246" x="111.415" y="396.078281" style="stroke: #000000; stroke-width: 0.8"/>
      </g>
     </g>
     <g id="text_13">
      <!-- 3000 -->
      <g transform="translate(48.425 404.436562)scale(0.22 -0.22)">
       <defs>
        <path id="DejaVuSans-33" d="M 2597 2516 
Q 3050 2419 3304 2112 
Q 3559 1806 3559 1356 
Q 3559 666 3084 287 
Q 2609 -91 1734 -91 
Q 1441 -91 1130 -33 
Q 819 25 488 141 
L 488 750 
Q 750 597 1062 519 
Q 1375 441 1716 441 
Q 2309 441 2620 675 
Q 2931 909 2931 1356 
Q 2931 1769 2642 2001 
Q 2353 2234 1838 2234 
L 1294 2234 
L 1294 2753 
L 1863 2753 
Q 2328 2753 2575 2939 
Q 2822 3125 2822 3475 
Q 2822 3834 2567 4026 
Q 2313 4219 1838 4219 
Q 1578 4219 1281 4162 
Q 984 4106 628 3988 
L 628 4550 
Q 988 4650 1302 4700 
Q 1616 4750 1894 4750 
Q 2613 4750 3031 4423 
Q 3450 4097 3450 3541 
Q 3450 3153 3228 2886 
Q 3006 2619 2597 2516 
z
" transform="scale(0.015625)"/>
       </defs>
       <use xlink:href="#DejaVuSans-33"/>
       <use xlink:href="#DejaVuSans-30" x="63.623047"/>
       <use xlink:href="#DejaVuSans-30" x="127.246094"/>
       <use xlink:href="#DejaVuSans-30" x="190.869141"/>
      </g>
     </g>
    </g>
    <g id="ytick_3">
     <g id="line2d_13">
      <g>
       <use xlink:href="#m75d7fd3246" x="111.415" y="341.718281" style="stroke: #000000; stroke-width: 0.8"/>
      </g>
     </g>
     <g id="text_14">
      <!-- 4000 -->
      <g transform="translate(48.425 350.076562)scale(0.22 -0.22)">
       <use xlink:href="#DejaVuSans-34"/>
       <use xlink:href="#DejaVuSans-30" x="63.623047"/>
       <use xlink:href="#DejaVuSans-30" x="127.246094"/>
       <use xlink:href="#DejaVuSans-30" x="190.869141"/>
      </g>
     </g>
    </g>
    <g id="ytick_4">
     <g id="line2d_14">
      <g>
       <use xlink:href="#m75d7fd3246" x="111.415" y="287.358281" style="stroke: #000000; stroke-width: 0.8"/>
      </g>
     </g>
     <g id="text_15">
      <!-- 5000 -->
      <g transform="translate(48.425 295.716562)scale(0.22 -0.22)">
       <defs>
        <path id="DejaVuSans-35" d="M 691 4666 
L 3169 4666 
L 3169 4134 
L 1269 4134 
L 1269 2991 
Q 1406 3038 1543 3061 
Q 1681 3084 1819 3084 
Q 2600 3084 3056 2656 
Q 3513 2228 3513 1497 
Q 3513 744 3044 326 
Q 2575 -91 1722 -91 
Q 1428 -91 1123 -41 
Q 819 9 494 109 
L 494 744 
Q 775 591 1075 516 
Q 1375 441 1709 441 
Q 2250 441 2565 725 
Q 2881 1009 2881 1497 
Q 2881 1984 2565 2268 
Q 2250 2553 1709 2553 
Q 1456 2553 1204 2497 
Q 953 2441 691 2322 
L 691 4666 
z
" transform="scale(0.015625)"/>
       </defs>
       <use xlink:href="#DejaVuSans-35"/>
       <use xlink:href="#DejaVuSans-30" x="63.623047"/>
       <use xlink:href="#DejaVuSans-30" x="127.246094"/>
       <use xlink:href="#DejaVuSans-30" x="190.869141"/>
      </g>
     </g>
    </g>
    <g id="ytick_5">
     <g id="line2d_15">
      <g>
       <use xlink:href="#m75d7fd3246" x="111.415" y="232.998281" style="stroke: #000000; stroke-width: 0.8"/>
      </g>
     </g>
     <g id="text_16">
      <!-- 6000 -->
      <g transform="translate(48.425 241.356562)scale(0.22 -0.22)">
       <use xlink:href="#DejaVuSans-36"/>
       <use xlink:href="#DejaVuSans-30" x="63.623047"/>
       <use xlink:href="#DejaVuSans-30" x="127.246094"/>
       <use xlink:href="#DejaVuSans-30" x="190.869141"/>
      </g>
     </g>
    </g>
    <g id="ytick_6">
     <g id="line2d_16">
      <g>
       <use xlink:href="#m75d7fd3246" x="111.415" y="178.638281" style="stroke: #000000; stroke-width: 0.8"/>
      </g>
     </g>
     <g id="text_17">
      <!-- 7000 -->
      <g transform="translate(48.425 186.996562)scale(0.22 -0.22)">
       <defs>
        <path id="DejaVuSans-37" d="M 525 4666 
L 3525 4666 
L 3525 4397 
L 1831 0 
L 1172 0 
L 2766 4134 
L 525 4134 
L 525 4666 
z
" transform="scale(0.015625)"/>
       </defs>
       <use xlink:href="#DejaVuSans-37"/>
       <use xlink:href="#DejaVuSans-30" x="63.623047"/>
       <use xlink:href="#DejaVuSans-30" x="127.246094"/>
       <use xlink:href="#DejaVuSans-30" x="190.869141"/>
      </g>
     </g>
    </g>
    <g id="ytick_7">
     <g id="line2d_17">
      <g>
       <use xlink:href="#m75d7fd3246" x="111.415" y="124.278281" style="stroke: #000000; stroke-width: 0.8"/>
      </g>
     </g>
     <g id="text_18">
      <!-- 8000 -->
      <g transform="translate(48.425 132.636562)scale(0.22 -0.22)">
       <use xlink:href="#DejaVuSans-38"/>
       <use xlink:href="#DejaVuSans-30" x="63.623047"/>
       <use xlink:href="#DejaVuSans-30" x="127.246094"/>
       <use xlink:href="#DejaVuSans-30" x="190.869141"/>
      </g>
     </g>
    </g>
    <g id="ytick_8">
     <g id="line2d_18">
      <g>
       <use xlink:href="#m75d7fd3246" x="111.415" y="69.918281" style="stroke: #000000; stroke-width: 0.8"/>
      </g>
     </g>
     <g id="text_19">
      <!-- 9000 -->
      <g transform="translate(48.425 78.276562)scale(0.22 -0.22)">
       <defs>
        <path id="DejaVuSans-39" d="M 703 97 
L 703 672 
Q 941 559 1184 500 
Q 1428 441 1663 441 
Q 2288 441 2617 861 
Q 2947 1281 2994 2138 
Q 2813 1869 2534 1725 
Q 2256 1581 1919 1581 
Q 1219 1581 811 2004 
Q 403 2428 403 3163 
Q 403 3881 828 4315 
Q 1253 4750 1959 4750 
Q 2769 4750 3195 4129 
Q 3622 3509 3622 2328 
Q 3622 1225 3098 567 
Q 2575 -91 1691 -91 
Q 1453 -91 1209 -44 
Q 966 3 703 97 
z
M 1959 2075 
Q 2384 2075 2632 2365 
Q 2881 2656 2881 3163 
Q 2881 3666 2632 3958 
Q 2384 4250 1959 4250 
Q 1534 4250 1286 3958 
Q 1038 3666 1038 3163 
Q 1038 2656 1286 2365 
Q 1534 2075 1959 2075 
z
" transform="scale(0.015625)"/>
       </defs>
       <use xlink:href="#DejaVuSans-39"/>
       <use xlink:href="#DejaVuSans-30" x="63.623047"/>
       <use xlink:href="#DejaVuSans-30" x="127.246094"/>
       <use xlink:href="#DejaVuSans-30" x="190.869141"/>
      </g>
     </g>
    </g>
    <g id="ytick_9">
     <g id="line2d_19">
      <g>
       <use xlink:href="#m75d7fd3246" x="111.415" y="15.558281" style="stroke: #000000; stroke-width: 0.8"/>
      </g>
     </g>
     <g id="text_20">
      <!-- 10000 -->
      <g transform="translate(34.4275 23.916562)scale(0.22 -0.22)">
       <use xlink:href="#DejaVuSans-31"/>
       <use xlink:href="#DejaVuSans-30" x="63.623047"/>
       <use xlink:href="#DejaVuSans-30" x="127.246094"/>
       <use xlink:href="#DejaVuSans-30" x="190.869141"/>
       <use xlink:href="#DejaVuSans-30" x="254.492188"/>
      </g>
     </g>
    </g>
    <g id="text_21">
     <!-- Weight (g) -->
     <g transform="translate(25.43625 295.598906)rotate(-90)scale(0.24 -0.24)">
      <defs>
       <path id="DejaVuSans-57" d="M 213 4666 
L 850 4666 
L 1831 722 
L 2809 4666 
L 3519 4666 
L 4500 722 
L 5478 4666 
L 6119 4666 
L 4947 0 
L 4153 0 
L 3169 4050 
L 2175 0 
L 1381 0 
L 213 4666 
z
" transform="scale(0.015625)"/>
       <path id="DejaVuSans-68" d="M 3513 2113 
L 3513 0 
L 2938 0 
L 2938 2094 
Q 2938 2591 2744 2837 
Q 2550 3084 2163 3084 
Q 1697 3084 1428 2787 
Q 1159 2491 1159 1978 
L 1159 0 
L 581 0 
L 581 4863 
L 1159 4863 
L 1159 2956 
Q 1366 3272 1645 3428 
Q 1925 3584 2291 3584 
Q 2894 3584 3203 3211 
Q 3513 2838 3513 2113 
z
" transform="scale(0.015625)"/>
       <path id="DejaVuSans-74" d="M 1172 4494 
L 1172 3500 
L 2356 3500 
L 2356 3053 
L 1172 3053 
L 1172 1153 
Q 1172 725 1289 603 
Q 1406 481 1766 481 
L 2356 481 
L 2356 0 
L 1766 0 
Q 1100 0 847 248 
Q 594 497 594 1153 
L 594 3053 
L 172 3053 
L 172 3500 
L 594 3500 
L 594 4494 
L 1172 4494 
z
" transform="scale(0.015625)"/>
       <path id="DejaVuSans-28" d="M 1984 4856 
Q 1566 4138 1362 3434 
Q 1159 2731 1159 2009 
Q 1159 1288 1364 580 
Q 1569 -128 1984 -844 
L 1484 -844 
Q 1016 -109 783 600 
Q 550 1309 550 2009 
Q 550 2706 781 3412 
Q 1013 4119 1484 4856 
L 1984 4856 
z
" transform="scale(0.015625)"/>
       <path id="DejaVuSans-29" d="M 513 4856 
L 1013 4856 
Q 1481 4119 1714 3412 
Q 1947 2706 1947 2009 
Q 1947 1309 1714 600 
Q 1481 -109 1013 -844 
L 513 -844 
Q 928 -128 1133 580 
Q 1338 1288 1338 2009 
Q 1338 2731 1133 3434 
Q 928 4138 513 4856 
z
" transform="scale(0.015625)"/>
      </defs>
      <use xlink:href="#DejaVuSans-57"/>
      <use xlink:href="#DejaVuSans-65" x="93.001953"/>
      <use xlink:href="#DejaVuSans-69" x="154.525391"/>
      <use xlink:href="#DejaVuSans-67" x="182.308594"/>
      <use xlink:href="#DejaVuSans-68" x="245.785156"/>
      <use xlink:href="#DejaVuSans-74" x="309.164062"/>
      <use xlink:href="#DejaVuSans-20" x="348.373047"/>
      <use xlink:href="#DejaVuSans-28" x="380.160156"/>
      <use xlink:href="#DejaVuSans-67" x="419.173828"/>
      <use xlink:href="#DejaVuSans-29" x="482.650391"/>
     </g>
    </g>
   </g>
   <g id="line2d_20">
    <path d="M 111.415 383.466761 
L 115.135 385.423721 
L 118.855 384.662681 
L 126.295 382.162121 
L 133.735 379.226681 
L 141.175 376.019441 
L 152.335 370.855241 
L 159.775 367.104401 
L 167.215 363.136121 
L 215.575 336.336641 
L 237.895 324.703601 
L 249.055 319.104521 
L 267.655 310.243841 
L 278.815 305.079641 
L 308.575 292.141961 
L 330.895 283.118201 
L 345.775 277.356041 
L 364.375 270.397961 
L 382.975 263.711681 
L 401.575 257.297201 
L 420.175 251.154521 
L 446.215 242.891801 
L 472.255 235.009601 
L 498.295 227.507921 
L 528.055 219.353921 
L 561.535 210.656321 
L 595.015 202.447961 
L 628.495 194.728841 
L 673.135 185.052761 
L 714.055 176.790041 
L 777.295 164.885201 
L 781.015 164.232881 
L 781.015 164.232881 
" clip-path="url(#p3c38ed54de)" style="fill: none; stroke: #000000; stroke-linecap: square"/>
   </g>
   <g id="line2d_21">
    <path d="M 111.415 385.206281 
L 115.135 386.235145 
L 118.855 386.982968 
L 122.575 387.066835 
L 126.295 386.585612 
L 130.015 385.629443 
L 137.455 383.267551 
L 141.175 381.91603 
L 144.895 380.440047 
L 148.615 378.839774 
L 152.335 377.116182 
L 159.775 373.302273 
L 167.215 369.008138 
L 174.655 364.446624 
L 185.815 357.285888 
L 196.975 349.833066 
L 215.575 337.06526 
L 234.175 324.327606 
L 252.775 311.856298 
L 271.375 299.685557 
L 286.255 290.247258 
L 301.135 281.134826 
L 316.015 272.347467 
L 330.895 263.890477 
L 345.775 255.757589 
L 360.655 247.949037 
L 375.535 240.46678 
L 390.415 233.310944 
L 405.295 226.47756 
L 420.175 219.959794 
L 435.055 213.747732 
L 449.935 207.828578 
L 464.815 202.183937 
L 479.695 196.795778 
L 494.575 191.650732 
L 509.455 186.740484 
L 524.335 182.062442 
L 539.215 177.619204 
L 554.095 173.417936 
L 568.975 169.471085 
L 583.855 165.78779 
L 598.735 162.370701 
L 613.615 159.213963 
L 632.215 155.52392 
L 650.815 152.054114 
L 673.135 148.11975 
L 736.375 137.180886 
L 754.975 133.693785 
L 773.575 129.983575 
L 781.015 128.429215 
L 781.015 128.429215 
" clip-path="url(#p3c38ed54de)" style="fill: none; stroke: #9097a8; stroke-width: 4; stroke-linecap: square"/>
   </g>
   <g id="line2d_22">
    <path d="M 111.415 385.206281 
L 130.015 378.492821 
L 148.615 371.523869 
L 167.215 364.293989 
L 182.095 358.298081 
L 200.695 350.551781 
L 219.295 342.501065 
L 223.015 340.853957 
L 226.735 340.109225 
L 241.615 333.374021 
L 260.215 324.665549 
L 263.935 322.882541 
L 282.535 314.755721 
L 293.695 309.689369 
L 316.015 299.312045 
L 323.455 295.659053 
L 327.175 293.707529 
L 338.335 287.336537 
L 349.495 280.764413 
L 371.815 267.103745 
L 435.055 246.669821 
L 442.495 244.196441 
L 446.215 242.810261 
L 505.735 227.513357 
L 539.215 218.348261 
L 554.095 214.303877 
L 557.815 213.271037 
L 583.855 207.416465 
L 591.295 205.655201 
L 595.015 204.807185 
L 609.895 202.752377 
L 654.535 196.462925 
L 665.695 195.011513 
L 680.575 193.739489 
L 754.975 187.107569 
L 781.015 184.672241 
L 781.015 184.672241 
" clip-path="url(#p3c38ed54de)" style="fill: none; stroke: #bd9494; stroke-width: 6; stroke-linecap: square"/>
   </g>
   <g id="patch_3">
    <path d="M 111.415 450.438281 
L 111.415 15.558281 
" style="fill: none; stroke: #000000; stroke-width: 0.8; stroke-linejoin: miter; stroke-linecap: square"/>
   </g>
   <g id="patch_4">
    <path d="M 111.415 450.438281 
L 781.015 450.438281 
" style="fill: none; stroke: #000000; stroke-width: 0.8; stroke-linejoin: miter; stroke-linecap: square"/>
   </g>
   <g id="legend_1">
    <g id="patch_5">
     <path d="M 126.815 130.033906 
L 406.782188 130.033906 
Q 411.182187 130.033906 411.182187 125.633906 
L 411.182187 30.958281 
Q 411.182187 26.558281 406.782188 26.558281 
L 126.815 26.558281 
Q 122.415 26.558281 122.415 30.958281 
L 122.415 125.633906 
Q 122.415 130.033906 126.815 130.033906 
z
" style="fill: #ffffff; opacity: 0.8; stroke: #cccccc; stroke-linejoin: miter"/>
    </g>
    <g id="line2d_23">
     <path d="M 131.215 44.374844 
L 153.215 44.374844 
L 175.215 44.374844 
" style="fill: none; stroke: #000000; stroke-linecap: square"/>
    </g>
    <g id="text_22">
     <!-- WHO reference -->
     <g transform="translate(192.815 52.074844)scale(0.22 -0.22)">
      <defs>
       <path id="DejaVuSans-48" d="M 628 4666 
L 1259 4666 
L 1259 2753 
L 3553 2753 
L 3553 4666 
L 4184 4666 
L 4184 0 
L 3553 0 
L 3553 2222 
L 1259 2222 
L 1259 0 
L 628 0 
L 628 4666 
z
" transform="scale(0.015625)"/>
       <path id="DejaVuSans-4f" d="M 2522 4238 
Q 1834 4238 1429 3725 
Q 1025 3213 1025 2328 
Q 1025 1447 1429 934 
Q 1834 422 2522 422 
Q 3209 422 3611 934 
Q 4013 1447 4013 2328 
Q 4013 3213 3611 3725 
Q 3209 4238 2522 4238 
z
M 2522 4750 
Q 3503 4750 4090 4092 
Q 4678 3434 4678 2328 
Q 4678 1225 4090 567 
Q 3503 -91 2522 -91 
Q 1538 -91 948 565 
Q 359 1222 359 2328 
Q 359 3434 948 4092 
Q 1538 4750 2522 4750 
z
" transform="scale(0.015625)"/>
       <path id="DejaVuSans-72" d="M 2631 2963 
Q 2534 3019 2420 3045 
Q 2306 3072 2169 3072 
Q 1681 3072 1420 2755 
Q 1159 2438 1159 1844 
L 1159 0 
L 581 0 
L 581 3500 
L 1159 3500 
L 1159 2956 
Q 1341 3275 1631 3429 
Q 1922 3584 2338 3584 
Q 2397 3584 2469 3576 
Q 2541 3569 2628 3553 
L 2631 2963 
z
" transform="scale(0.015625)"/>
       <path id="DejaVuSans-66" d="M 2375 4863 
L 2375 4384 
L 1825 4384 
Q 1516 4384 1395 4259 
Q 1275 4134 1275 3809 
L 1275 3500 
L 2222 3500 
L 2222 3053 
L 1275 3053 
L 1275 0 
L 697 0 
L 697 3053 
L 147 3053 
L 147 3500 
L 697 3500 
L 697 3744 
Q 697 4328 969 4595 
Q 1241 4863 1831 4863 
L 2375 4863 
z
" transform="scale(0.015625)"/>
       <path id="DejaVuSans-63" d="M 3122 3366 
L 3122 2828 
Q 2878 2963 2633 3030 
Q 2388 3097 2138 3097 
Q 1578 3097 1268 2742 
Q 959 2388 959 1747 
Q 959 1106 1268 751 
Q 1578 397 2138 397 
Q 2388 397 2633 464 
Q 2878 531 3122 666 
L 3122 134 
Q 2881 22 2623 -34 
Q 2366 -91 2075 -91 
Q 1284 -91 818 406 
Q 353 903 353 1747 
Q 353 2603 823 3093 
Q 1294 3584 2113 3584 
Q 2378 3584 2631 3529 
Q 2884 3475 3122 3366 
z
" transform="scale(0.015625)"/>
      </defs>
      <use xlink:href="#DejaVuSans-57"/>
      <use xlink:href="#DejaVuSans-48" x="98.876953"/>
      <use xlink:href="#DejaVuSans-4f" x="174.072266"/>
      <use xlink:href="#DejaVuSans-20" x="252.783203"/>
      <use xlink:href="#DejaVuSans-72" x="284.570312"/>
      <use xlink:href="#DejaVuSans-65" x="323.433594"/>
      <use xlink:href="#DejaVuSans-66" x="384.957031"/>
      <use xlink:href="#DejaVuSans-65" x="420.162109"/>
      <use xlink:href="#DejaVuSans-72" x="481.685547"/>
      <use xlink:href="#DejaVuSans-65" x="520.548828"/>
      <use xlink:href="#DejaVuSans-6e" x="582.072266"/>
      <use xlink:href="#DejaVuSans-63" x="645.451172"/>
      <use xlink:href="#DejaVuSans-65" x="700.431641"/>
     </g>
    </g>
    <g id="line2d_24">
     <path d="M 131.215 76.666719 
L 153.215 76.666719 
L 175.215 76.666719 
" style="fill: none; stroke: #9097a8; stroke-width: 4; stroke-linecap: square"/>
    </g>
    <g id="text_23">
     <!-- STIG-Met female -->
     <g transform="translate(192.815 84.366719)scale(0.22 -0.22)">
      <defs>
       <path id="DejaVuSans-53" d="M 3425 4513 
L 3425 3897 
Q 3066 4069 2747 4153 
Q 2428 4238 2131 4238 
Q 1616 4238 1336 4038 
Q 1056 3838 1056 3469 
Q 1056 3159 1242 3001 
Q 1428 2844 1947 2747 
L 2328 2669 
Q 3034 2534 3370 2195 
Q 3706 1856 3706 1288 
Q 3706 609 3251 259 
Q 2797 -91 1919 -91 
Q 1588 -91 1214 -16 
Q 841 59 441 206 
L 441 856 
Q 825 641 1194 531 
Q 1563 422 1919 422 
Q 2459 422 2753 634 
Q 3047 847 3047 1241 
Q 3047 1584 2836 1778 
Q 2625 1972 2144 2069 
L 1759 2144 
Q 1053 2284 737 2584 
Q 422 2884 422 3419 
Q 422 4038 858 4394 
Q 1294 4750 2059 4750 
Q 2388 4750 2728 4690 
Q 3069 4631 3425 4513 
z
" transform="scale(0.015625)"/>
       <path id="DejaVuSans-54" d="M -19 4666 
L 3928 4666 
L 3928 4134 
L 2272 4134 
L 2272 0 
L 1638 0 
L 1638 4134 
L -19 4134 
L -19 4666 
z
" transform="scale(0.015625)"/>
       <path id="DejaVuSans-49" d="M 628 4666 
L 1259 4666 
L 1259 0 
L 628 0 
L 628 4666 
z
" transform="scale(0.015625)"/>
       <path id="DejaVuSans-47" d="M 3809 666 
L 3809 1919 
L 2778 1919 
L 2778 2438 
L 4434 2438 
L 4434 434 
Q 4069 175 3628 42 
Q 3188 -91 2688 -91 
Q 1594 -91 976 548 
Q 359 1188 359 2328 
Q 359 3472 976 4111 
Q 1594 4750 2688 4750 
Q 3144 4750 3555 4637 
Q 3966 4525 4313 4306 
L 4313 3634 
Q 3963 3931 3569 4081 
Q 3175 4231 2741 4231 
Q 1884 4231 1454 3753 
Q 1025 3275 1025 2328 
Q 1025 1384 1454 906 
Q 1884 428 2741 428 
Q 3075 428 3337 486 
Q 3600 544 3809 666 
z
" transform="scale(0.015625)"/>
       <path id="DejaVuSans-2d" d="M 313 2009 
L 1997 2009 
L 1997 1497 
L 313 1497 
L 313 2009 
z
" transform="scale(0.015625)"/>
       <path id="DejaVuSans-4d" d="M 628 4666 
L 1569 4666 
L 2759 1491 
L 3956 4666 
L 4897 4666 
L 4897 0 
L 4281 0 
L 4281 4097 
L 3078 897 
L 2444 897 
L 1241 4097 
L 1241 0 
L 628 0 
L 628 4666 
z
" transform="scale(0.015625)"/>
       <path id="DejaVuSans-6d" d="M 3328 2828 
Q 3544 3216 3844 3400 
Q 4144 3584 4550 3584 
Q 5097 3584 5394 3201 
Q 5691 2819 5691 2113 
L 5691 0 
L 5113 0 
L 5113 2094 
Q 5113 2597 4934 2840 
Q 4756 3084 4391 3084 
Q 3944 3084 3684 2787 
Q 3425 2491 3425 1978 
L 3425 0 
L 2847 0 
L 2847 2094 
Q 2847 2600 2669 2842 
Q 2491 3084 2119 3084 
Q 1678 3084 1418 2786 
Q 1159 2488 1159 1978 
L 1159 0 
L 581 0 
L 581 3500 
L 1159 3500 
L 1159 2956 
Q 1356 3278 1631 3431 
Q 1906 3584 2284 3584 
Q 2666 3584 2933 3390 
Q 3200 3197 3328 2828 
z
" transform="scale(0.015625)"/>
       <path id="DejaVuSans-6c" d="M 603 4863 
L 1178 4863 
L 1178 0 
L 603 0 
L 603 4863 
z
" transform="scale(0.015625)"/>
      </defs>
      <use xlink:href="#DejaVuSans-53"/>
      <use xlink:href="#DejaVuSans-54" x="63.476562"/>
      <use xlink:href="#DejaVuSans-49" x="124.560547"/>
      <use xlink:href="#DejaVuSans-47" x="154.052734"/>
      <use xlink:href="#DejaVuSans-2d" x="231.542969"/>
      <use xlink:href="#DejaVuSans-4d" x="267.626953"/>
      <use xlink:href="#DejaVuSans-65" x="353.90625"/>
      <use xlink:href="#DejaVuSans-74" x="415.429688"/>
      <use xlink:href="#DejaVuSans-20" x="454.638672"/>
      <use xlink:href="#DejaVuSans-66" x="486.425781"/>
      <use xlink:href="#DejaVuSans-65" x="521.630859"/>
      <use xlink:href="#DejaVuSans-6d" x="583.154297"/>
      <use xlink:href="#DejaVuSans-61" x="680.566406"/>
      <use xlink:href="#DejaVuSans-6c" x="741.845703"/>
      <use xlink:href="#DejaVuSans-65" x="769.628906"/>
     </g>
    </g>
    <g id="line2d_25">
     <path d="M 131.215 108.958594 
L 153.215 108.958594 
L 175.215 108.958594 
" style="fill: none; stroke: #bd9494; stroke-width: 6; stroke-linecap: square"/>
    </g>
    <g id="text_24">
     <!-- infant-WBM female -->
     <g transform="translate(192.815 116.658594)scale(0.22 -0.22)">
      <defs>
       <path id="DejaVuSans-42" d="M 1259 2228 
L 1259 519 
L 2272 519 
Q 2781 519 3026 730 
Q 3272 941 3272 1375 
Q 3272 1813 3026 2020 
Q 2781 2228 2272 2228 
L 1259 2228 
z
M 1259 4147 
L 1259 2741 
L 2194 2741 
Q 2656 2741 2882 2914 
Q 3109 3088 3109 3444 
Q 3109 3797 2882 3972 
Q 2656 4147 2194 4147 
L 1259 4147 
z
M 628 4666 
L 2241 4666 
Q 2963 4666 3353 4366 
Q 3744 4066 3744 3513 
Q 3744 3084 3544 2831 
Q 3344 2578 2956 2516 
Q 3422 2416 3680 2098 
Q 3938 1781 3938 1306 
Q 3938 681 3513 340 
Q 3088 0 2303 0 
L 628 0 
L 628 4666 
z
" transform="scale(0.015625)"/>
      </defs>
      <use xlink:href="#DejaVuSans-69"/>
      <use xlink:href="#DejaVuSans-6e" x="27.783203"/>
      <use xlink:href="#DejaVuSans-66" x="91.162109"/>
      <use xlink:href="#DejaVuSans-61" x="126.367188"/>
      <use xlink:href="#DejaVuSans-6e" x="187.646484"/>
      <use xlink:href="#DejaVuSans-74" x="251.025391"/>
      <use xlink:href="#DejaVuSans-2d" x="290.234375"/>
      <use xlink:href="#DejaVuSans-57" x="322.318359"/>
      <use xlink:href="#DejaVuSans-42" x="421.195312"/>
      <use xlink:href="#DejaVuSans-4d" x="489.798828"/>
      <use xlink:href="#DejaVuSans-20" x="576.078125"/>
      <use xlink:href="#DejaVuSans-66" x="607.865234"/>
      <use xlink:href="#DejaVuSans-65" x="643.070312"/>
      <use xlink:href="#DejaVuSans-6d" x="704.59375"/>
      <use xlink:href="#DejaVuSans-61" x="802.005859"/>
      <use xlink:href="#DejaVuSans-6c" x="863.285156"/>
      <use xlink:href="#DejaVuSans-65" x="891.068359"/>
     </g>
    </g>
   </g>
  </g>
 </g>
 <defs>
  <clipPath id="p3c38ed54de">
   <rect x="111.415" y="15.558281" width="669.6" height="434.88"/>
  </clipPath>
 </defs>
</svg>
