<?xml version="1.0" encoding="utf-8" standalone="no"?>
<!DOCTYPE svg PUBLIC "-//W3C//DTD SVG 1.1//EN"
  "http://www.w3.org/Graphics/SVG/1.1/DTD/svg11.dtd">
<svg xmlns:xlink="http://www.w3.org/1999/xlink" width="809.21125pt" height="513.157656pt" viewBox="0 0 809.21125 513.157656" xmlns="http://www.w3.org/2000/svg" version="1.1">
 <metadata>
  <rdf:RDF xmlns:dc="http://purl.org/dc/elements/1.1/" xmlns:cc="http://creativecommons.org/ns#" xmlns:rdf="http://www.w3.org/1999/02/22-rdf-syntax-ns#">
   <cc:Work>
    <dc:type rdf:resource="http://purl.org/dc/dcmitype/StillImage"/>
    <dc:date>2023-09-20T09:27:57.220764</dc:date>
    <dc:format>image/svg+xml</dc:format>
    <dc:creator>
     <cc:Agent>
      <dc:title>Matplotlib v3.5.0, https://matplotlib.org/</dc:title>
     </cc:Agent>
    </dc:creator>
   </cc:Work>
  </rdf:RDF>
 </metadata>
 <defs>
  <style type="text/css">*{stroke-linejoin: round; stroke-linecap: butt}</style>
 </defs>
 <g id="figure_1">
  <g id="patch_1">
   <path d="M 0 513.157656 
L 809.21125 513.157656 
L 809.21125 0 
L 0 0 
L 0 513.157656 
z
" style="fill: none"/>
  </g>
  <g id="axes_1">
   <g id="patch_2">
    <path d="M 111.415 450.438281 
L 781.015 450.438281 
L 781.015 15.558281 
L 111.415 15.558281 
z
" style="fill: #ffffff"/>
   </g>
   <g id="PolyCollection_1">
    <path d="M 111.415 330.030881 
L 111.415 417.604841 
L 115.135 418.909481 
L 118.855 417.985361 
L 122.575 416.789441 
L 126.295 415.430441 
L 130.015 414.017081 
L 133.735 412.549361 
L 137.455 410.972921 
L 141.175 409.396481 
L 144.895 407.711321 
L 148.615 406.026161 
L 152.335 404.286641 
L 156.055 402.438401 
L 159.775 400.590161 
L 163.495 398.687561 
L 167.215 396.676241 
L 170.935 394.664921 
L 174.655 392.653601 
L 178.375 390.587921 
L 182.095 388.522241 
L 185.815 386.510921 
L 189.535 384.445241 
L 193.255 382.379561 
L 196.975 380.313881 
L 200.695 378.248201 
L 204.415 376.236881 
L 208.135 374.171201 
L 211.855 372.159881 
L 215.575 370.148561 
L 219.295 368.137241 
L 223.015 366.180281 
L 226.735 364.168961 
L 230.455 362.266361 
L 234.175 360.309401 
L 237.895 358.406801 
L 241.615 356.504201 
L 245.335 354.601601 
L 249.055 352.753361 
L 252.775 350.905121 
L 256.495 349.056881 
L 260.215 347.263001 
L 263.935 345.469121 
L 267.655 343.675241 
L 271.375 341.935721 
L 275.095 340.196201 
L 278.815 338.456681 
L 282.535 336.771521 
L 286.255 335.086361 
L 289.975 333.401201 
L 293.695 331.770401 
L 297.415 330.139601 
L 301.135 328.508801 
L 304.855 326.878001 
L 308.575 325.301561 
L 312.295 323.725121 
L 316.015 322.203041 
L 319.735 320.626601 
L 323.455 319.104521 
L 327.175 317.582441 
L 330.895 316.114721 
L 334.615 314.592641 
L 338.335 313.124921 
L 342.055 311.657201 
L 345.775 310.243841 
L 349.495 308.776121 
L 353.215 307.362761 
L 356.935 305.949401 
L 360.655 304.590401 
L 364.375 303.177041 
L 368.095 301.818041 
L 371.815 300.459041 
L 375.535 299.154401 
L 379.255 297.795401 
L 382.975 296.490761 
L 386.695 295.186121 
L 390.415 293.881481 
L 394.135 292.576841 
L 397.855 291.326561 
L 401.575 290.076281 
L 405.295 288.826001 
L 409.015 287.575721 
L 412.735 286.325441 
L 416.455 285.129521 
L 420.175 283.933601 
L 423.895 282.737681 
L 427.615 281.541761 
L 431.335 280.400201 
L 435.055 279.204281 
L 438.775 278.062721 
L 442.495 276.921161 
L 446.215 275.779601 
L 449.935 274.638041 
L 453.655 273.550841 
L 457.375 272.409281 
L 461.095 271.322081 
L 464.815 270.234881 
L 468.535 269.147681 
L 472.255 268.060481 
L 475.975 267.027641 
L 479.695 265.940441 
L 483.415 264.907601 
L 487.135 263.874761 
L 490.855 262.841921 
L 494.575 261.809081 
L 498.295 260.830601 
L 502.015 259.797761 
L 505.735 258.819281 
L 509.455 257.840801 
L 513.175 256.807961 
L 516.895 255.829481 
L 520.615 254.905361 
L 524.335 253.926881 
L 528.055 252.948401 
L 531.775 252.024281 
L 535.495 251.100161 
L 539.215 250.176041 
L 542.935 249.197561 
L 546.655 248.327801 
L 550.375 247.403681 
L 554.095 246.479561 
L 557.815 245.609801 
L 561.535 244.685681 
L 565.255 243.815921 
L 568.975 242.946161 
L 572.695 242.022041 
L 576.415 241.152281 
L 580.135 240.336881 
L 583.855 239.467121 
L 587.575 238.597361 
L 591.295 237.781961 
L 595.015 236.912201 
L 598.735 236.096801 
L 602.455 235.281401 
L 606.175 234.466001 
L 609.895 233.650601 
L 613.615 232.835201 
L 617.335 232.019801 
L 621.055 231.204401 
L 624.775 230.443361 
L 628.495 229.627961 
L 632.215 228.866921 
L 635.935 228.051521 
L 639.655 227.290481 
L 643.375 226.529441 
L 647.095 225.768401 
L 650.815 225.007361 
L 654.535 224.246321 
L 658.255 223.485281 
L 661.975 222.778601 
L 665.695 222.017561 
L 669.415 221.310881 
L 673.135 220.549841 
L 676.855 219.843161 
L 680.575 219.136481 
L 684.295 218.429801 
L 688.015 217.723121 
L 691.735 217.016441 
L 695.455 216.309761 
L 699.175 215.603081 
L 702.895 214.896401 
L 706.615 214.244081 
L 710.335 213.537401 
L 714.055 212.885081 
L 717.775 212.178401 
L 721.495 211.526081 
L 725.215 210.873761 
L 728.935 210.167081 
L 732.655 209.514761 
L 736.375 208.862441 
L 740.095 208.210121 
L 743.815 207.612161 
L 747.535 206.959841 
L 751.255 206.307521 
L 754.975 205.655201 
L 758.695 205.057241 
L 762.415 204.404921 
L 766.135 203.806961 
L 769.855 203.154641 
L 773.575 202.556681 
L 777.295 201.958721 
L 781.015 201.306401 
L 781.015 45.891161 
L 781.015 45.891161 
L 777.295 46.706561 
L 773.575 47.521961 
L 769.855 48.337361 
L 766.135 49.207121 
L 762.415 50.022521 
L 758.695 50.892281 
L 754.975 51.707681 
L 751.255 52.577441 
L 747.535 53.447201 
L 743.815 54.316961 
L 740.095 55.132361 
L 736.375 56.056481 
L 732.655 56.926241 
L 728.935 57.796001 
L 725.215 58.665761 
L 721.495 59.535521 
L 717.775 60.459641 
L 714.055 61.329401 
L 710.335 62.253521 
L 706.615 63.123281 
L 702.895 64.047401 
L 699.175 64.971521 
L 695.455 65.895641 
L 691.735 66.819761 
L 688.015 67.743881 
L 684.295 68.668001 
L 680.575 69.592121 
L 676.855 70.570601 
L 673.135 71.494721 
L 669.415 72.473201 
L 665.695 73.451681 
L 661.975 74.375801 
L 658.255 75.354281 
L 654.535 76.332761 
L 650.815 77.311241 
L 647.095 78.289721 
L 643.375 79.322561 
L 639.655 80.301041 
L 635.935 81.333881 
L 632.215 82.312361 
L 628.495 83.345201 
L 624.775 84.378041 
L 621.055 85.410881 
L 617.335 86.443721 
L 613.615 87.476561 
L 609.895 88.509401 
L 606.175 89.542241 
L 602.455 90.629441 
L 598.735 91.662281 
L 595.015 92.749481 
L 591.295 93.836681 
L 587.575 94.923881 
L 583.855 96.011081 
L 580.135 97.098281 
L 576.415 98.185481 
L 572.695 99.327041 
L 568.975 100.468601 
L 565.255 101.555801 
L 561.535 102.697361 
L 557.815 103.838921 
L 554.095 104.980481 
L 550.375 106.122041 
L 546.655 107.317961 
L 542.935 108.459521 
L 539.215 109.655441 
L 535.495 110.851361 
L 531.775 112.047281 
L 528.055 113.243201 
L 524.335 114.439121 
L 520.615 115.635041 
L 516.895 116.885321 
L 513.175 118.135601 
L 509.455 119.331521 
L 505.735 120.581801 
L 502.015 121.886441 
L 498.295 123.136721 
L 494.575 124.441361 
L 490.855 125.691641 
L 487.135 126.996281 
L 483.415 128.300921 
L 479.695 129.659921 
L 475.975 130.964561 
L 472.255 132.323561 
L 468.535 133.682561 
L 464.815 134.987201 
L 461.095 136.400561 
L 457.375 137.759561 
L 453.655 139.172921 
L 449.935 140.586281 
L 446.215 141.999641 
L 442.495 143.413001 
L 438.775 144.880721 
L 435.055 146.294081 
L 431.335 147.761801 
L 427.615 149.283881 
L 423.895 150.751601 
L 420.175 152.273681 
L 416.455 153.795761 
L 412.735 155.317841 
L 409.015 156.894281 
L 405.295 158.416361 
L 401.575 159.992801 
L 397.855 161.623601 
L 394.135 163.200041 
L 390.415 164.830841 
L 386.695 166.461641 
L 382.975 168.146801 
L 379.255 169.831961 
L 375.535 171.517121 
L 371.815 173.202281 
L 368.095 174.941801 
L 364.375 176.681321 
L 360.655 178.420841 
L 356.935 180.214721 
L 353.215 182.008601 
L 349.495 183.802481 
L 345.775 185.650721 
L 342.055 187.498961 
L 338.335 189.347201 
L 334.615 191.249801 
L 330.895 193.152401 
L 327.175 195.109361 
L 323.455 197.011961 
L 319.735 198.968921 
L 316.015 200.980241 
L 312.295 202.991561 
L 308.575 205.057241 
L 304.855 207.122921 
L 301.135 209.188601 
L 297.415 211.254281 
L 293.695 213.428681 
L 289.975 215.548721 
L 286.255 217.777481 
L 282.535 219.951881 
L 278.815 222.180641 
L 275.095 224.463761 
L 271.375 226.746881 
L 267.655 229.030001 
L 263.935 231.367481 
L 260.215 233.759321 
L 256.495 236.151161 
L 252.775 238.543001 
L 249.055 241.043561 
L 245.335 243.489761 
L 241.615 245.990321 
L 237.895 248.545241 
L 234.175 251.100161 
L 230.455 253.709441 
L 226.735 256.373081 
L 223.015 258.982361 
L 219.295 261.700361 
L 215.575 264.418361 
L 211.855 267.136361 
L 208.135 269.854361 
L 204.415 272.626721 
L 200.695 275.399081 
L 196.975 278.225801 
L 193.255 281.052521 
L 189.535 283.824881 
L 185.815 286.651601 
L 182.095 289.478321 
L 178.375 292.305041 
L 174.655 295.131761 
L 170.935 297.958481 
L 167.215 300.730841 
L 163.495 303.448841 
L 159.775 306.112481 
L 156.055 308.667401 
L 152.335 311.167961 
L 148.615 313.559801 
L 144.895 315.897281 
L 141.175 318.180401 
L 137.455 320.354801 
L 133.735 322.529201 
L 130.015 324.594881 
L 126.295 326.606201 
L 122.575 328.454441 
L 118.855 330.193961 
L 115.135 331.498601 
L 111.415 330.030881 
z
" clip-path="url(#pb788d0fcc5)" style="fill: #f4f4f2"/>
   </g>
   <g id="PolyCollection_2">
    <path d="M 111.415 358.732961 
L 111.415 394.610561 
L 115.135 396.078281 
L 118.855 395.099801 
L 122.575 393.795161 
L 126.295 392.327441 
L 130.015 390.751001 
L 133.735 389.120201 
L 137.455 387.435041 
L 141.175 385.695521 
L 144.895 383.901641 
L 148.615 381.999041 
L 152.335 380.096441 
L 156.055 378.085121 
L 159.775 376.073801 
L 163.495 373.953761 
L 167.215 371.779361 
L 170.935 369.550601 
L 174.655 367.321841 
L 178.375 365.093081 
L 182.095 362.809961 
L 185.815 360.526841 
L 189.535 358.298081 
L 193.255 356.014961 
L 196.975 353.786201 
L 200.695 351.503081 
L 204.415 349.274321 
L 208.135 347.045561 
L 211.855 344.816801 
L 215.575 342.642401 
L 219.295 340.413641 
L 223.015 338.293601 
L 226.735 336.119201 
L 230.455 333.999161 
L 234.175 331.879121 
L 237.895 329.759081 
L 241.615 327.693401 
L 245.335 325.627721 
L 249.055 323.616401 
L 252.775 321.605081 
L 256.495 319.648121 
L 260.215 317.636801 
L 263.935 315.734201 
L 267.655 313.777241 
L 271.375 311.874641 
L 275.095 309.972041 
L 278.815 308.123801 
L 282.535 306.275561 
L 286.255 304.427321 
L 289.975 302.633441 
L 293.695 300.839561 
L 297.415 299.100041 
L 301.135 297.306161 
L 304.855 295.621001 
L 308.575 293.881481 
L 312.295 292.196321 
L 316.015 290.511161 
L 319.735 288.826001 
L 323.455 287.195201 
L 327.175 285.564401 
L 330.895 283.933601 
L 334.615 282.357161 
L 338.335 280.780721 
L 342.055 279.204281 
L 345.775 277.627841 
L 349.495 276.105761 
L 353.215 274.583681 
L 356.935 273.061601 
L 360.655 271.539521 
L 364.375 270.071801 
L 368.095 268.604081 
L 371.815 267.136361 
L 375.535 265.723001 
L 379.255 264.255281 
L 382.975 262.841921 
L 386.695 261.482921 
L 390.415 260.069561 
L 394.135 258.710561 
L 397.855 257.351561 
L 401.575 255.992561 
L 405.295 254.633561 
L 409.015 253.328921 
L 412.735 251.969921 
L 416.455 250.719641 
L 420.175 249.415001 
L 423.895 248.110361 
L 427.615 246.860081 
L 431.335 245.609801 
L 435.055 244.359521 
L 438.775 243.109241 
L 442.495 241.858961 
L 446.215 240.663041 
L 449.935 239.467121 
L 453.655 238.271201 
L 457.375 237.075281 
L 461.095 235.879361 
L 464.815 234.737801 
L 468.535 233.596241 
L 472.255 232.400321 
L 475.975 231.313121 
L 479.695 230.171561 
L 483.415 229.030001 
L 487.135 227.942801 
L 490.855 226.801241 
L 494.575 225.714041 
L 498.295 224.626841 
L 502.015 223.539641 
L 505.735 222.506801 
L 509.455 221.419601 
L 513.175 220.386761 
L 516.895 219.353921 
L 520.615 218.321081 
L 524.335 217.288241 
L 528.055 216.255401 
L 531.775 215.222561 
L 535.495 214.244081 
L 539.215 213.211241 
L 542.935 212.232761 
L 546.655 211.254281 
L 550.375 210.275801 
L 554.095 209.297321 
L 557.815 208.318841 
L 561.535 207.340361 
L 565.255 206.416241 
L 568.975 205.437761 
L 572.695 204.513641 
L 576.415 203.589521 
L 580.135 202.665401 
L 583.855 201.741281 
L 587.575 200.817161 
L 591.295 199.893041 
L 595.015 199.023281 
L 598.735 198.099161 
L 602.455 197.229401 
L 606.175 196.359641 
L 609.895 195.435521 
L 613.615 194.565761 
L 617.335 193.696001 
L 621.055 192.880601 
L 624.775 192.010841 
L 628.495 191.141081 
L 632.215 190.325681 
L 635.935 189.455921 
L 639.655 188.640521 
L 643.375 187.825121 
L 647.095 186.955361 
L 650.815 186.139961 
L 654.535 185.324561 
L 658.255 184.563521 
L 661.975 183.748121 
L 665.695 182.932721 
L 669.415 182.171681 
L 673.135 181.356281 
L 676.855 180.595241 
L 680.575 179.779841 
L 684.295 179.018801 
L 688.015 178.257761 
L 691.735 177.496721 
L 695.455 176.735681 
L 699.175 175.974641 
L 702.895 175.213601 
L 706.615 174.506921 
L 710.335 173.745881 
L 714.055 173.039201 
L 717.775 172.278161 
L 721.495 171.571481 
L 725.215 170.810441 
L 728.935 170.103761 
L 732.655 169.397081 
L 736.375 168.690401 
L 740.095 167.983721 
L 743.815 167.277041 
L 747.535 166.570361 
L 751.255 165.863681 
L 754.975 165.211361 
L 758.695 164.504681 
L 762.415 163.798001 
L 766.135 163.145681 
L 769.855 162.493361 
L 773.575 161.786681 
L 777.295 161.134361 
L 781.015 160.482041 
L 781.015 96.880841 
L 781.015 96.880841 
L 777.295 97.641881 
L 773.575 98.402921 
L 769.855 99.163961 
L 766.135 99.925001 
L 762.415 100.686041 
L 758.695 101.501441 
L 754.975 102.262481 
L 751.255 103.023521 
L 747.535 103.838921 
L 743.815 104.599961 
L 740.095 105.415361 
L 736.375 106.176401 
L 732.655 106.991801 
L 728.935 107.807201 
L 725.215 108.622601 
L 721.495 109.438001 
L 717.775 110.253401 
L 714.055 111.068801 
L 710.335 111.884201 
L 706.615 112.699601 
L 702.895 113.569361 
L 699.175 114.384761 
L 695.455 115.254521 
L 691.735 116.069921 
L 688.015 116.939681 
L 684.295 117.809441 
L 680.575 118.679201 
L 676.855 119.548961 
L 673.135 120.418721 
L 669.415 121.288481 
L 665.695 122.158241 
L 661.975 123.082361 
L 658.255 123.952121 
L 654.535 124.876241 
L 650.815 125.800361 
L 647.095 126.670121 
L 643.375 127.594241 
L 639.655 128.518361 
L 635.935 129.442481 
L 632.215 130.366601 
L 628.495 131.345081 
L 624.775 132.269201 
L 621.055 133.247681 
L 617.335 134.171801 
L 613.615 135.150281 
L 609.895 136.128761 
L 606.175 137.107241 
L 602.455 138.085721 
L 598.735 139.064201 
L 595.015 140.042681 
L 591.295 141.075521 
L 587.575 142.054001 
L 583.855 143.086841 
L 580.135 144.119681 
L 576.415 145.098161 
L 572.695 146.185361 
L 568.975 147.218201 
L 565.255 148.251041 
L 561.535 149.283881 
L 557.815 150.371081 
L 554.095 151.403921 
L 550.375 152.491121 
L 546.655 153.578321 
L 542.935 154.665521 
L 539.215 155.752721 
L 535.495 156.894281 
L 531.775 157.981481 
L 528.055 159.123041 
L 524.335 160.210241 
L 520.615 161.351801 
L 516.895 162.493361 
L 513.175 163.634921 
L 509.455 164.830841 
L 505.735 165.972401 
L 502.015 167.168321 
L 498.295 168.364241 
L 494.575 169.560161 
L 490.855 170.756081 
L 487.135 171.952001 
L 483.415 173.202281 
L 479.695 174.398201 
L 475.975 175.648481 
L 472.255 176.898761 
L 468.535 178.149041 
L 464.815 179.453681 
L 461.095 180.703961 
L 457.375 182.008601 
L 453.655 183.313241 
L 449.935 184.617881 
L 446.215 185.976881 
L 442.495 187.281521 
L 438.775 188.640521 
L 435.055 189.999521 
L 431.335 191.358521 
L 427.615 192.771881 
L 423.895 194.130881 
L 420.175 195.544241 
L 416.455 196.957601 
L 412.735 198.425321 
L 409.015 199.838681 
L 405.295 201.306401 
L 401.575 202.774121 
L 397.855 204.296201 
L 394.135 205.763921 
L 390.415 207.286001 
L 386.695 208.808081 
L 382.975 210.384521 
L 379.255 211.960961 
L 375.535 213.483041 
L 371.815 215.113841 
L 368.095 216.690281 
L 364.375 218.321081 
L 360.655 219.951881 
L 356.935 221.637041 
L 353.215 223.267841 
L 349.495 224.953001 
L 345.775 226.692521 
L 342.055 228.377681 
L 338.335 230.117201 
L 334.615 231.911081 
L 330.895 233.650601 
L 327.175 235.444481 
L 323.455 237.292721 
L 319.735 239.086601 
L 316.015 240.934841 
L 312.295 242.837441 
L 308.575 244.685681 
L 304.855 246.588281 
L 301.135 248.545241 
L 297.415 250.502201 
L 293.695 252.459161 
L 289.975 254.470481 
L 286.255 256.481801 
L 282.535 258.493121 
L 278.815 260.558801 
L 275.095 262.678841 
L 271.375 264.744521 
L 267.655 266.918921 
L 263.935 269.038961 
L 260.215 271.267721 
L 256.495 273.442121 
L 252.775 275.670881 
L 249.055 277.954001 
L 245.335 280.237121 
L 241.615 282.520241 
L 237.895 284.857721 
L 234.175 287.249561 
L 230.455 289.587041 
L 226.735 292.033241 
L 223.015 294.425081 
L 219.295 296.925641 
L 215.575 299.371841 
L 211.855 301.872401 
L 208.135 304.372961 
L 204.415 306.927881 
L 200.695 309.482801 
L 196.975 312.037721 
L 193.255 314.592641 
L 189.535 317.147561 
L 185.815 319.756841 
L 182.095 322.311761 
L 178.375 324.866681 
L 174.655 327.475961 
L 170.935 329.976521 
L 167.215 332.531441 
L 163.495 334.977641 
L 159.775 337.423841 
L 156.055 339.761321 
L 152.335 341.990081 
L 148.615 344.218841 
L 144.895 346.338881 
L 141.175 348.404561 
L 137.455 350.361521 
L 133.735 352.318481 
L 130.015 354.166721 
L 126.295 355.960601 
L 122.575 357.645761 
L 118.855 359.167841 
L 115.135 360.363761 
L 111.415 358.732961 
z
" clip-path="url(#pb788d0fcc5)" style="fill: #e8e8e8"/>
   </g>
   <g id="matplotlib.axis_1">
    <g id="xtick_1">
     <g id="line2d_1">
      <defs>
       <path id="m9ba07ba6e4" d="M 0 0 
L 0 3.5 
" style="stroke: #000000; stroke-width: 0.8"/>
      </defs>
      <g>
       <use xlink:href="#m9ba07ba6e4" x="111.415" y="450.438281" style="stroke: #000000; stroke-width: 0.8"/>
      </g>
     </g>
     <g id="text_1">
      <!-- 0 -->
      <g transform="translate(104.41625 474.154844)scale(0.22 -0.22)">
       <defs>
        <path id="DejaVuSans-30" d="M 2034 4250 
Q 1547 4250 1301 3770 
Q 1056 3291 1056 2328 
Q 1056 1369 1301 889 
Q 1547 409 2034 409 
Q 2525 409 2770 889 
Q 3016 1369 3016 2328 
Q 3016 3291 2770 3770 
Q 2525 4250 2034 4250 
z
M 2034 4750 
Q 2819 4750 3233 4129 
Q 3647 3509 3647 2328 
Q 3647 1150 3233 529 
Q 2819 -91 2034 -91 
Q 1250 -91 836 529 
Q 422 1150 422 2328 
Q 422 3509 836 4129 
Q 1250 4750 2034 4750 
z
" transform="scale(0.015625)"/>
       </defs>
       <use xlink:href="#DejaVuSans-30"/>
      </g>
     </g>
    </g>
    <g id="xtick_2">
     <g id="line2d_2">
      <g>
       <use xlink:href="#m9ba07ba6e4" x="185.815" y="450.438281" style="stroke: #000000; stroke-width: 0.8"/>
      </g>
     </g>
     <g id="text_2">
      <!-- 20 -->
      <g transform="translate(171.8175 474.154844)scale(0.22 -0.22)">
       <defs>
        <path id="DejaVuSans-32" d="M 1228 531 
L 3431 531 
L 3431 0 
L 469 0 
L 469 531 
Q 828 903 1448 1529 
Q 2069 2156 2228 2338 
Q 2531 2678 2651 2914 
Q 2772 3150 2772 3378 
Q 2772 3750 2511 3984 
Q 2250 4219 1831 4219 
Q 1534 4219 1204 4116 
Q 875 4013 500 3803 
L 500 4441 
Q 881 4594 1212 4672 
Q 1544 4750 1819 4750 
Q 2544 4750 2975 4387 
Q 3406 4025 3406 3419 
Q 3406 3131 3298 2873 
Q 3191 2616 2906 2266 
Q 2828 2175 2409 1742 
Q 1991 1309 1228 531 
z
" transform="scale(0.015625)"/>
       </defs>
       <use xlink:href="#DejaVuSans-32"/>
       <use xlink:href="#DejaVuSans-30" x="63.623047"/>
      </g>
     </g>
    </g>
    <g id="xtick_3">
     <g id="line2d_3">
      <g>
       <use xlink:href="#m9ba07ba6e4" x="260.215" y="450.438281" style="stroke: #000000; stroke-width: 0.8"/>
      </g>
     </g>
     <g id="text_3">
      <!-- 40 -->
      <g transform="translate(246.2175 474.154844)scale(0.22 -0.22)">
       <defs>
        <path id="DejaVuSans-34" d="M 2419 4116 
L 825 1625 
L 2419 1625 
L 2419 4116 
z
M 2253 4666 
L 3047 4666 
L 3047 1625 
L 3713 1625 
L 3713 1100 
L 3047 1100 
L 3047 0 
L 2419 0 
L 2419 1100 
L 313 1100 
L 313 1709 
L 2253 4666 
z
" transform="scale(0.015625)"/>
       </defs>
       <use xlink:href="#DejaVuSans-34"/>
       <use xlink:href="#DejaVuSans-30" x="63.623047"/>
      </g>
     </g>
    </g>
    <g id="xtick_4">
     <g id="line2d_4">
      <g>
       <use xlink:href="#m9ba07ba6e4" x="334.615" y="450.438281" style="stroke: #000000; stroke-width: 0.8"/>
      </g>
     </g>
     <g id="text_4">
      <!-- 60 -->
      <g transform="translate(320.6175 474.154844)scale(0.22 -0.22)">
       <defs>
        <path id="DejaVuSans-36" d="M 2113 2584 
Q 1688 2584 1439 2293 
Q 1191 2003 1191 1497 
Q 1191 994 1439 701 
Q 1688 409 2113 409 
Q 2538 409 2786 701 
Q 3034 994 3034 1497 
Q 3034 2003 2786 2293 
Q 2538 2584 2113 2584 
z
M 3366 4563 
L 3366 3988 
Q 3128 4100 2886 4159 
Q 2644 4219 2406 4219 
Q 1781 4219 1451 3797 
Q 1122 3375 1075 2522 
Q 1259 2794 1537 2939 
Q 1816 3084 2150 3084 
Q 2853 3084 3261 2657 
Q 3669 2231 3669 1497 
Q 3669 778 3244 343 
Q 2819 -91 2113 -91 
Q 1303 -91 875 529 
Q 447 1150 447 2328 
Q 447 3434 972 4092 
Q 1497 4750 2381 4750 
Q 2619 4750 2861 4703 
Q 3103 4656 3366 4563 
z
" transform="scale(0.015625)"/>
       </defs>
       <use xlink:href="#DejaVuSans-36"/>
       <use xlink:href="#DejaVuSans-30" x="63.623047"/>
      </g>
     </g>
    </g>
    <g id="xtick_5">
     <g id="line2d_5">
      <g>
       <use xlink:href="#m9ba07ba6e4" x="409.015" y="450.438281" style="stroke: #000000; stroke-width: 0.8"/>
      </g>
     </g>
     <g id="text_5">
      <!-- 80 -->
      <g transform="translate(395.0175 474.154844)scale(0.22 -0.22)">
       <defs>
        <path id="DejaVuSans-38" d="M 2034 2216 
Q 1584 2216 1326 1975 
Q 1069 1734 1069 1313 
Q 1069 891 1326 650 
Q 1584 409 2034 409 
Q 2484 409 2743 651 
Q 3003 894 3003 1313 
Q 3003 1734 2745 1975 
Q 2488 2216 2034 2216 
z
M 1403 2484 
Q 997 2584 770 2862 
Q 544 3141 544 3541 
Q 544 4100 942 4425 
Q 1341 4750 2034 4750 
Q 2731 4750 3128 4425 
Q 3525 4100 3525 3541 
Q 3525 3141 3298 2862 
Q 3072 2584 2669 2484 
Q 3125 2378 3379 2068 
Q 3634 1759 3634 1313 
Q 3634 634 3220 271 
Q 2806 -91 2034 -91 
Q 1263 -91 848 271 
Q 434 634 434 1313 
Q 434 1759 690 2068 
Q 947 2378 1403 2484 
z
M 1172 3481 
Q 1172 3119 1398 2916 
Q 1625 2713 2034 2713 
Q 2441 2713 2670 2916 
Q 2900 3119 2900 3481 
Q 2900 3844 2670 4047 
Q 2441 4250 2034 4250 
Q 1625 4250 1398 4047 
Q 1172 3844 1172 3481 
z
" transform="scale(0.015625)"/>
       </defs>
       <use xlink:href="#DejaVuSans-38"/>
       <use xlink:href="#DejaVuSans-30" x="63.623047"/>
      </g>
     </g>
    </g>
    <g id="xtick_6">
     <g id="line2d_6">
      <g>
       <use xlink:href="#m9ba07ba6e4" x="483.415" y="450.438281" style="stroke: #000000; stroke-width: 0.8"/>
      </g>
     </g>
     <g id="text_6">
      <!-- 100 -->
      <g transform="translate(462.41875 474.154844)scale(0.22 -0.22)">
       <defs>
        <path id="DejaVuSans-31" d="M 794 531 
L 1825 531 
L 1825 4091 
L 703 3866 
L 703 4441 
L 1819 4666 
L 2450 4666 
L 2450 531 
L 3481 531 
L 3481 0 
L 794 0 
L 794 531 
z
" transform="scale(0.015625)"/>
       </defs>
       <use xlink:href="#DejaVuSans-31"/>
       <use xlink:href="#DejaVuSans-30" x="63.623047"/>
       <use xlink:href="#DejaVuSans-30" x="127.246094"/>
      </g>
     </g>
    </g>
    <g id="xtick_7">
     <g id="line2d_7">
      <g>
       <use xlink:href="#m9ba07ba6e4" x="557.815" y="450.438281" style="stroke: #000000; stroke-width: 0.8"/>
      </g>
     </g>
     <g id="text_7">
      <!-- 120 -->
      <g transform="translate(536.81875 474.154844)scale(0.22 -0.22)">
       <use xlink:href="#DejaVuSans-31"/>
       <use xlink:href="#DejaVuSans-32" x="63.623047"/>
       <use xlink:href="#DejaVuSans-30" x="127.246094"/>
      </g>
     </g>
    </g>
    <g id="xtick_8">
     <g id="line2d_8">
      <g>
       <use xlink:href="#m9ba07ba6e4" x="632.215" y="450.438281" style="stroke: #000000; stroke-width: 0.8"/>
      </g>
     </g>
     <g id="text_8">
      <!-- 140 -->
      <g transform="translate(611.21875 474.154844)scale(0.22 -0.22)">
       <use xlink:href="#DejaVuSans-31"/>
       <use xlink:href="#DejaVuSans-34" x="63.623047"/>
       <use xlink:href="#DejaVuSans-30" x="127.246094"/>
      </g>
     </g>
    </g>
    <g id="xtick_9">
     <g id="line2d_9">
      <g>
       <use xlink:href="#m9ba07ba6e4" x="706.615" y="450.438281" style="stroke: #000000; stroke-width: 0.8"/>
      </g>
     </g>
     <g id="text_9">
      <!-- 160 -->
      <g transform="translate(685.61875 474.154844)scale(0.22 -0.22)">
       <use xlink:href="#DejaVuSans-31"/>
       <use xlink:href="#DejaVuSans-36" x="63.623047"/>
       <use xlink:href="#DejaVuSans-30" x="127.246094"/>
      </g>
     </g>
    </g>
    <g id="xtick_10">
     <g id="line2d_10">
      <g>
       <use xlink:href="#m9ba07ba6e4" x="781.015" y="450.438281" style="stroke: #000000; stroke-width: 0.8"/>
      </g>
     </g>
     <g id="text_10">
      <!-- 180 -->
      <g transform="translate(760.01875 474.154844)scale(0.22 -0.22)">
       <use xlink:href="#DejaVuSans-31"/>
       <use xlink:href="#DejaVuSans-38" x="63.623047"/>
       <use xlink:href="#DejaVuSans-30" x="127.246094"/>
      </g>
     </g>
    </g>
    <g id="text_11">
     <!-- Age in days -->
     <g transform="translate(376.1125 500.966406)scale(0.24 -0.24)">
      <defs>
       <path id="DejaVuSans-41" d="M 2188 4044 
L 1331 1722 
L 3047 1722 
L 2188 4044 
z
M 1831 4666 
L 2547 4666 
L 4325 0 
L 3669 0 
L 3244 1197 
L 1141 1197 
L 716 0 
L 50 0 
L 1831 4666 
z
" transform="scale(0.015625)"/>
       <path id="DejaVuSans-67" d="M 2906 1791 
Q 2906 2416 2648 2759 
Q 2391 3103 1925 3103 
Q 1463 3103 1205 2759 
Q 947 2416 947 1791 
Q 947 1169 1205 825 
Q 1463 481 1925 481 
Q 2391 481 2648 825 
Q 2906 1169 2906 1791 
z
M 3481 434 
Q 3481 -459 3084 -895 
Q 2688 -1331 1869 -1331 
Q 1566 -1331 1297 -1286 
Q 1028 -1241 775 -1147 
L 775 -588 
Q 1028 -725 1275 -790 
Q 1522 -856 1778 -856 
Q 2344 -856 2625 -561 
Q 2906 -266 2906 331 
L 2906 616 
Q 2728 306 2450 153 
Q 2172 0 1784 0 
Q 1141 0 747 490 
Q 353 981 353 1791 
Q 353 2603 747 3093 
Q 1141 3584 1784 3584 
Q 2172 3584 2450 3431 
Q 2728 3278 2906 2969 
L 2906 3500 
L 3481 3500 
L 3481 434 
z
" transform="scale(0.015625)"/>
       <path id="DejaVuSans-65" d="M 3597 1894 
L 3597 1613 
L 953 1613 
Q 991 1019 1311 708 
Q 1631 397 2203 397 
Q 2534 397 2845 478 
Q 3156 559 3463 722 
L 3463 178 
Q 3153 47 2828 -22 
Q 2503 -91 2169 -91 
Q 1331 -91 842 396 
Q 353 884 353 1716 
Q 353 2575 817 3079 
Q 1281 3584 2069 3584 
Q 2775 3584 3186 3129 
Q 3597 2675 3597 1894 
z
M 3022 2063 
Q 3016 2534 2758 2815 
Q 2500 3097 2075 3097 
Q 1594 3097 1305 2825 
Q 1016 2553 972 2059 
L 3022 2063 
z
" transform="scale(0.015625)"/>
       <path id="DejaVuSans-20" transform="scale(0.015625)"/>
       <path id="DejaVuSans-69" d="M 603 3500 
L 1178 3500 
L 1178 0 
L 603 0 
L 603 3500 
z
M 603 4863 
L 1178 4863 
L 1178 4134 
L 603 4134 
L 603 4863 
z
" transform="scale(0.015625)"/>
       <path id="DejaVuSans-6e" d="M 3513 2113 
L 3513 0 
L 2938 0 
L 2938 2094 
Q 2938 2591 2744 2837 
Q 2550 3084 2163 3084 
Q 1697 3084 1428 2787 
Q 1159 2491 1159 1978 
L 1159 0 
L 581 0 
L 581 3500 
L 1159 3500 
L 1159 2956 
Q 1366 3272 1645 3428 
Q 1925 3584 2291 3584 
Q 2894 3584 3203 3211 
Q 3513 2838 3513 2113 
z
" transform="scale(0.015625)"/>
       <path id="DejaVuSans-64" d="M 2906 2969 
L 2906 4863 
L 3481 4863 
L 3481 0 
L 2906 0 
L 2906 525 
Q 2725 213 2448 61 
Q 2172 -91 1784 -91 
Q 1150 -91 751 415 
Q 353 922 353 1747 
Q 353 2572 751 3078 
Q 1150 3584 1784 3584 
Q 2172 3584 2448 3432 
Q 2725 3281 2906 2969 
z
M 947 1747 
Q 947 1113 1208 752 
Q 1469 391 1925 391 
Q 2381 391 2643 752 
Q 2906 1113 2906 1747 
Q 2906 2381 2643 2742 
Q 2381 3103 1925 3103 
Q 1469 3103 1208 2742 
Q 947 2381 947 1747 
z
" transform="scale(0.015625)"/>
       <path id="DejaVuSans-61" d="M 2194 1759 
Q 1497 1759 1228 1600 
Q 959 1441 959 1056 
Q 959 750 1161 570 
Q 1363 391 1709 391 
Q 2188 391 2477 730 
Q 2766 1069 2766 1631 
L 2766 1759 
L 2194 1759 
z
M 3341 1997 
L 3341 0 
L 2766 0 
L 2766 531 
Q 2569 213 2275 61 
Q 1981 -91 1556 -91 
Q 1019 -91 701 211 
Q 384 513 384 1019 
Q 384 1609 779 1909 
Q 1175 2209 1959 2209 
L 2766 2209 
L 2766 2266 
Q 2766 2663 2505 2880 
Q 2244 3097 1772 3097 
Q 1472 3097 1187 3025 
Q 903 2953 641 2809 
L 641 3341 
Q 956 3463 1253 3523 
Q 1550 3584 1831 3584 
Q 2591 3584 2966 3190 
Q 3341 2797 3341 1997 
z
" transform="scale(0.015625)"/>
       <path id="DejaVuSans-79" d="M 2059 -325 
Q 1816 -950 1584 -1140 
Q 1353 -1331 966 -1331 
L 506 -1331 
L 506 -850 
L 844 -850 
Q 1081 -850 1212 -737 
Q 1344 -625 1503 -206 
L 1606 56 
L 191 3500 
L 800 3500 
L 1894 763 
L 2988 3500 
L 3597 3500 
L 2059 -325 
z
" transform="scale(0.015625)"/>
       <path id="DejaVuSans-73" d="M 2834 3397 
L 2834 2853 
Q 2591 2978 2328 3040 
Q 2066 3103 1784 3103 
Q 1356 3103 1142 2972 
Q 928 2841 928 2578 
Q 928 2378 1081 2264 
Q 1234 2150 1697 2047 
L 1894 2003 
Q 2506 1872 2764 1633 
Q 3022 1394 3022 966 
Q 3022 478 2636 193 
Q 2250 -91 1575 -91 
Q 1294 -91 989 -36 
Q 684 19 347 128 
L 347 722 
Q 666 556 975 473 
Q 1284 391 1588 391 
Q 1994 391 2212 530 
Q 2431 669 2431 922 
Q 2431 1156 2273 1281 
Q 2116 1406 1581 1522 
L 1381 1569 
Q 847 1681 609 1914 
Q 372 2147 372 2553 
Q 372 3047 722 3315 
Q 1072 3584 1716 3584 
Q 2034 3584 2315 3537 
Q 2597 3491 2834 3397 
z
" transform="scale(0.015625)"/>
      </defs>
      <use xlink:href="#DejaVuSans-41"/>
      <use xlink:href="#DejaVuSans-67" x="68.408203"/>
      <use xlink:href="#DejaVuSans-65" x="131.884766"/>
      <use xlink:href="#DejaVuSans-20" x="193.408203"/>
      <use xlink:href="#DejaVuSans-69" x="225.195312"/>
      <use xlink:href="#DejaVuSans-6e" x="252.978516"/>
      <use xlink:href="#DejaVuSans-20" x="316.357422"/>
      <use xlink:href="#DejaVuSans-64" x="348.144531"/>
      <use xlink:href="#DejaVuSans-61" x="411.621094"/>
      <use xlink:href="#DejaVuSans-79" x="472.900391"/>
      <use xlink:href="#DejaVuSans-73" x="532.080078"/>
     </g>
    </g>
   </g>
   <g id="matplotlib.axis_2">
    <g id="ytick_1">
     <g id="line2d_11">
      <defs>
       <path id="mfb3445e960" d="M 0 0 
L -3.5 0 
" style="stroke: #000000; stroke-width: 0.8"/>
      </defs>
      <g>
       <use xlink:href="#mfb3445e960" x="111.415" y="450.438281" style="stroke: #000000; stroke-width: 0.8"/>
      </g>
     </g>
     <g id="text_12">
      <!-- 2000 -->
      <g transform="translate(48.425 458.796562)scale(0.22 -0.22)">
       <use xlink:href="#DejaVuSans-32"/>
       <use xlink:href="#DejaVuSans-30" x="63.623047"/>
       <use xlink:href="#DejaVuSans-30" x="127.246094"/>
       <use xlink:href="#DejaVuSans-30" x="190.869141"/>
      </g>
     </g>
    </g>
    <g id="ytick_2">
     <g id="line2d_12">
      <g>
       <use xlink:href="#mfb3445e960" x="111.415" y="396.078281" style="stroke: #000000; stroke-width: 0.8"/>
      </g>
     </g>
     <g id="text_13">
      <!-- 3000 -->
      <g transform="translate(48.425 404.436562)scale(0.22 -0.22)">
       <defs>
        <path id="DejaVuSans-33" d="M 2597 2516 
Q 3050 2419 3304 2112 
Q 3559 1806 3559 1356 
Q 3559 666 3084 287 
Q 2609 -91 1734 -91 
Q 1441 -91 1130 -33 
Q 819 25 488 141 
L 488 750 
Q 750 597 1062 519 
Q 1375 441 1716 441 
Q 2309 441 2620 675 
Q 2931 909 2931 1356 
Q 2931 1769 2642 2001 
Q 2353 2234 1838 2234 
L 1294 2234 
L 1294 2753 
L 1863 2753 
Q 2328 2753 2575 2939 
Q 2822 3125 2822 3475 
Q 2822 3834 2567 4026 
Q 2313 4219 1838 4219 
Q 1578 4219 1281 4162 
Q 984 4106 628 3988 
L 628 4550 
Q 988 4650 1302 4700 
Q 1616 4750 1894 4750 
Q 2613 4750 3031 4423 
Q 3450 4097 3450 3541 
Q 3450 3153 3228 2886 
Q 3006 2619 2597 2516 
z
" transform="scale(0.015625)"/>
       </defs>
       <use xlink:href="#DejaVuSans-33"/>
       <use xlink:href="#DejaVuSans-30" x="63.623047"/>
       <use xlink:href="#DejaVuSans-30" x="127.246094"/>
       <use xlink:href="#DejaVuSans-30" x="190.869141"/>
      </g>
     </g>
    </g>
    <g id="ytick_3">
     <g id="line2d_13">
      <g>
       <use xlink:href="#mfb3445e960" x="111.415" y="341.718281" style="stroke: #000000; stroke-width: 0.8"/>
      </g>
     </g>
     <g id="text_14">
      <!-- 4000 -->
      <g transform="translate(48.425 350.076562)scale(0.22 -0.22)">
       <use xlink:href="#DejaVuSans-34"/>
       <use xlink:href="#DejaVuSans-30" x="63.623047"/>
       <use xlink:href="#DejaVuSans-30" x="127.246094"/>
       <use xlink:href="#DejaVuSans-30" x="190.869141"/>
      </g>
     </g>
    </g>
    <g id="ytick_4">
     <g id="line2d_14">
      <g>
       <use xlink:href="#mfb3445e960" x="111.415" y="287.358281" style="stroke: #000000; stroke-width: 0.8"/>
      </g>
     </g>
     <g id="text_15">
      <!-- 5000 -->
      <g transform="translate(48.425 295.716562)scale(0.22 -0.22)">
       <defs>
        <path id="DejaVuSans-35" d="M 691 4666 
L 3169 4666 
L 3169 4134 
L 1269 4134 
L 1269 2991 
Q 1406 3038 1543 3061 
Q 1681 3084 1819 3084 
Q 2600 3084 3056 2656 
Q 3513 2228 3513 1497 
Q 3513 744 3044 326 
Q 2575 -91 1722 -91 
Q 1428 -91 1123 -41 
Q 819 9 494 109 
L 494 744 
Q 775 591 1075 516 
Q 1375 441 1709 441 
Q 2250 441 2565 725 
Q 2881 1009 2881 1497 
Q 2881 1984 2565 2268 
Q 2250 2553 1709 2553 
Q 1456 2553 1204 2497 
Q 953 2441 691 2322 
L 691 4666 
z
" transform="scale(0.015625)"/>
       </defs>
       <use xlink:href="#DejaVuSans-35"/>
       <use xlink:href="#DejaVuSans-30" x="63.623047"/>
       <use xlink:href="#DejaVuSans-30" x="127.246094"/>
       <use xlink:href="#DejaVuSans-30" x="190.869141"/>
      </g>
     </g>
    </g>
    <g id="ytick_5">
     <g id="line2d_15">
      <g>
       <use xlink:href="#mfb3445e960" x="111.415" y="232.998281" style="stroke: #000000; stroke-width: 0.8"/>
      </g>
     </g>
     <g id="text_16">
      <!-- 6000 -->
      <g transform="translate(48.425 241.356562)scale(0.22 -0.22)">
       <use xlink:href="#DejaVuSans-36"/>
       <use xlink:href="#DejaVuSans-30" x="63.623047"/>
       <use xlink:href="#DejaVuSans-30" x="127.246094"/>
       <use xlink:href="#DejaVuSans-30" x="190.869141"/>
      </g>
     </g>
    </g>
    <g id="ytick_6">
     <g id="line2d_16">
      <g>
       <use xlink:href="#mfb3445e960" x="111.415" y="178.638281" style="stroke: #000000; stroke-width: 0.8"/>
      </g>
     </g>
     <g id="text_17">
      <!-- 7000 -->
      <g transform="translate(48.425 186.996562)scale(0.22 -0.22)">
       <defs>
        <path id="DejaVuSans-37" d="M 525 4666 
L 3525 4666 
L 3525 4397 
L 1831 0 
L 1172 0 
L 2766 4134 
L 525 4134 
L 525 4666 
z
" transform="scale(0.015625)"/>
       </defs>
       <use xlink:href="#DejaVuSans-37"/>
       <use xlink:href="#DejaVuSans-30" x="63.623047"/>
       <use xlink:href="#DejaVuSans-30" x="127.246094"/>
       <use xlink:href="#DejaVuSans-30" x="190.869141"/>
      </g>
     </g>
    </g>
    <g id="ytick_7">
     <g id="line2d_17">
      <g>
       <use xlink:href="#mfb3445e960" x="111.415" y="124.278281" style="stroke: #000000; stroke-width: 0.8"/>
      </g>
     </g>
     <g id="text_18">
      <!-- 8000 -->
      <g transform="translate(48.425 132.636562)scale(0.22 -0.22)">
       <use xlink:href="#DejaVuSans-38"/>
       <use xlink:href="#DejaVuSans-30" x="63.623047"/>
       <use xlink:href="#DejaVuSans-30" x="127.246094"/>
       <use xlink:href="#DejaVuSans-30" x="190.869141"/>
      </g>
     </g>
    </g>
    <g id="ytick_8">
     <g id="line2d_18">
      <g>
       <use xlink:href="#mfb3445e960" x="111.415" y="69.918281" style="stroke: #000000; stroke-width: 0.8"/>
      </g>
     </g>
     <g id="text_19">
      <!-- 9000 -->
      <g transform="translate(48.425 78.276562)scale(0.22 -0.22)">
       <defs>
        <path id="DejaVuSans-39" d="M 703 97 
L 703 672 
Q 941 559 1184 500 
Q 1428 441 1663 441 
Q 2288 441 2617 861 
Q 2947 1281 2994 2138 
Q 2813 1869 2534 1725 
Q 2256 1581 1919 1581 
Q 1219 1581 811 2004 
Q 403 2428 403 3163 
Q 403 3881 828 4315 
Q 1253 4750 1959 4750 
Q 2769 4750 3195 4129 
Q 3622 3509 3622 2328 
Q 3622 1225 3098 567 
Q 2575 -91 1691 -91 
Q 1453 -91 1209 -44 
Q 966 3 703 97 
z
M 1959 2075 
Q 2384 2075 2632 2365 
Q 2881 2656 2881 3163 
Q 2881 3666 2632 3958 
Q 2384 4250 1959 4250 
Q 1534 4250 1286 3958 
Q 1038 3666 1038 3163 
Q 1038 2656 1286 2365 
Q 1534 2075 1959 2075 
z
" transform="scale(0.015625)"/>
       </defs>
       <use xlink:href="#DejaVuSans-39"/>
       <use xlink:href="#DejaVuSans-30" x="63.623047"/>
       <use xlink:href="#DejaVuSans-30" x="127.246094"/>
       <use xlink:href="#DejaVuSans-30" x="190.869141"/>
      </g>
     </g>
    </g>
    <g id="ytick_9">
     <g id="line2d_19">
      <g>
       <use xlink:href="#mfb3445e960" x="111.415" y="15.558281" style="stroke: #000000; stroke-width: 0.8"/>
      </g>
     </g>
     <g id="text_20">
      <!-- 10000 -->
      <g transform="translate(34.4275 23.916562)scale(0.22 -0.22)">
       <use xlink:href="#DejaVuSans-31"/>
       <use xlink:href="#DejaVuSans-30" x="63.623047"/>
       <use xlink:href="#DejaVuSans-30" x="127.246094"/>
       <use xlink:href="#DejaVuSans-30" x="190.869141"/>
       <use xlink:href="#DejaVuSans-30" x="254.492188"/>
      </g>
     </g>
    </g>
    <g id="text_21">
     <!-- Weight (g) -->
     <g transform="translate(25.43625 295.598906)rotate(-90)scale(0.24 -0.24)">
      <defs>
       <path id="DejaVuSans-57" d="M 213 4666 
L 850 4666 
L 1831 722 
L 2809 4666 
L 3519 4666 
L 4500 722 
L 5478 4666 
L 6119 4666 
L 4947 0 
L 4153 0 
L 3169 4050 
L 2175 0 
L 1381 0 
L 213 4666 
z
" transform="scale(0.015625)"/>
       <path id="DejaVuSans-68" d="M 3513 2113 
L 3513 0 
L 2938 0 
L 2938 2094 
Q 2938 2591 2744 2837 
Q 2550 3084 2163 3084 
Q 1697 3084 1428 2787 
Q 1159 2491 1159 1978 
L 1159 0 
L 581 0 
L 581 4863 
L 1159 4863 
L 1159 2956 
Q 1366 3272 1645 3428 
Q 1925 3584 2291 3584 
Q 2894 3584 3203 3211 
Q 3513 2838 3513 2113 
z
" transform="scale(0.015625)"/>
       <path id="DejaVuSans-74" d="M 1172 4494 
L 1172 3500 
L 2356 3500 
L 2356 3053 
L 1172 3053 
L 1172 1153 
Q 1172 725 1289 603 
Q 1406 481 1766 481 
L 2356 481 
L 2356 0 
L 1766 0 
Q 1100 0 847 248 
Q 594 497 594 1153 
L 594 3053 
L 172 3053 
L 172 3500 
L 594 3500 
L 594 4494 
L 1172 4494 
z
" transform="scale(0.015625)"/>
       <path id="DejaVuSans-28" d="M 1984 4856 
Q 1566 4138 1362 3434 
Q 1159 2731 1159 2009 
Q 1159 1288 1364 580 
Q 1569 -128 1984 -844 
L 1484 -844 
Q 1016 -109 783 600 
Q 550 1309 550 2009 
Q 550 2706 781 3412 
Q 1013 4119 1484 4856 
L 1984 4856 
z
" transform="scale(0.015625)"/>
       <path id="DejaVuSans-29" d="M 513 4856 
L 1013 4856 
Q 1481 4119 1714 3412 
Q 1947 2706 1947 2009 
Q 1947 1309 1714 600 
Q 1481 -109 1013 -844 
L 513 -844 
Q 928 -128 1133 580 
Q 1338 1288 1338 2009 
Q 1338 2731 1133 3434 
Q 928 4138 513 4856 
z
" transform="scale(0.015625)"/>
      </defs>
      <use xlink:href="#DejaVuSans-57"/>
      <use xlink:href="#DejaVuSans-65" x="93.001953"/>
      <use xlink:href="#DejaVuSans-69" x="154.525391"/>
      <use xlink:href="#DejaVuSans-67" x="182.308594"/>
      <use xlink:href="#DejaVuSans-68" x="245.785156"/>
      <use xlink:href="#DejaVuSans-74" x="309.164062"/>
      <use xlink:href="#DejaVuSans-20" x="348.373047"/>
      <use xlink:href="#DejaVuSans-28" x="380.160156"/>
      <use xlink:href="#DejaVuSans-67" x="419.173828"/>
      <use xlink:href="#DejaVuSans-29" x="482.650391"/>
     </g>
    </g>
   </g>
   <g id="line2d_20">
    <path d="M 111.415 377.269721 
L 115.135 378.846161 
L 118.855 377.758961 
L 122.575 376.345601 
L 130.015 373.138361 
L 141.175 367.702361 
L 152.335 361.722761 
L 159.775 357.428321 
L 170.935 350.470241 
L 223.015 317.093201 
L 237.895 308.069441 
L 256.495 297.306161 
L 271.375 289.152161 
L 282.535 283.226921 
L 293.695 277.464761 
L 312.295 268.332281 
L 323.455 263.059361 
L 349.495 251.371961 
L 375.535 240.445601 
L 401.575 230.280281 
L 416.455 224.735561 
L 435.055 218.049281 
L 449.935 212.939441 
L 472.255 205.546481 
L 490.855 199.675601 
L 513.175 192.934961 
L 542.935 184.346081 
L 565.255 178.257761 
L 602.455 168.581681 
L 632.215 161.297441 
L 673.135 151.838801 
L 710.335 143.793521 
L 758.695 134.008721 
L 781.015 129.714281 
L 781.015 129.714281 
" clip-path="url(#pb788d0fcc5)" style="fill: none; stroke: #000000; stroke-linecap: square"/>
   </g>
   <g id="line2d_21">
    <path d="M 111.415 379.770281 
L 115.135 380.833685 
L 118.855 381.616018 
L 122.575 381.734364 
L 126.295 381.311611 
L 130.015 380.413272 
L 137.455 378.165326 
L 141.175 376.869612 
L 144.895 375.448496 
L 148.615 373.902363 
L 152.335 372.232377 
L 159.775 368.524121 
L 167.215 364.333635 
L 174.655 359.873617 
L 185.815 352.861118 
L 196.975 345.552655 
L 215.575 333.017655 
L 237.895 318.031367 
L 256.495 305.834081 
L 275.095 293.941964 
L 289.975 284.750625 
L 304.855 275.883199 
L 319.735 267.338453 
L 334.615 259.121247 
L 349.495 251.223977 
L 364.375 243.648981 
L 379.255 236.397591 
L 394.135 229.469157 
L 409.015 222.858438 
L 423.895 216.558268 
L 438.775 210.557665 
L 453.655 204.842691 
L 468.535 199.394004 
L 483.415 194.194704 
L 498.295 189.232579 
L 513.175 184.500437 
L 528.055 179.997471 
L 542.935 175.727094 
L 557.815 171.698086 
L 572.695 167.922814 
L 587.575 164.408915 
L 602.455 161.157462 
L 617.335 158.152134 
L 635.935 154.623492 
L 654.535 151.302633 
L 680.575 146.909748 
L 728.935 138.827316 
L 751.255 134.811781 
L 769.855 131.226971 
L 781.015 128.955335 
L 781.015 128.955335 
" clip-path="url(#pb788d0fcc5)" style="fill: none; stroke: #9097a8; stroke-width: 4; stroke-linecap: square"/>
   </g>
   <g id="line2d_22">
    <path d="M 111.415 379.770281 
L 133.735 369.817663 
L 144.895 364.661353 
L 159.775 357.574626 
L 174.655 350.184961 
L 185.815 344.485608 
L 208.135 332.586027 
L 223.015 324.30612 
L 234.175 317.908754 
L 249.055 309.106226 
L 256.495 304.557621 
L 267.655 297.609555 
L 282.535 288.055633 
L 293.695 280.690546 
L 304.855 273.100906 
L 319.735 262.654809 
L 330.895 254.582602 
L 334.615 251.842978 
L 353.215 241.155336 
L 371.815 230.107379 
L 382.975 223.254148 
L 390.415 218.573114 
L 412.735 208.803997 
L 435.055 198.780711 
L 438.775 197.07497 
L 464.815 190.500115 
L 472.255 188.543571 
L 498.295 181.733624 
L 524.335 174.812586 
L 554.095 166.76315 
L 591.295 156.458335 
L 613.615 150.138733 
L 628.495 145.91522 
L 661.975 136.104212 
L 680.575 135.121274 
L 706.615 133.738949 
L 781.015 129.718903 
L 781.015 129.718903 
" clip-path="url(#pb788d0fcc5)" style="fill: none; stroke: #bd9494; stroke-width: 6; stroke-linecap: square"/>
   </g>
   <g id="patch_3">
    <path d="M 111.415 450.438281 
L 111.415 15.558281 
" style="fill: none; stroke: #000000; stroke-width: 0.8; stroke-linejoin: miter; stroke-linecap: square"/>
   </g>
   <g id="patch_4">
    <path d="M 111.415 450.438281 
L 781.015 450.438281 
" style="fill: none; stroke: #000000; stroke-width: 0.8; stroke-linejoin: miter; stroke-linecap: square"/>
   </g>
   <g id="legend_1">
    <g id="patch_5">
     <path d="M 126.815 130.033906 
L 385.500625 130.033906 
Q 389.900625 130.033906 389.900625 125.633906 
L 389.900625 30.958281 
Q 389.900625 26.558281 385.500625 26.558281 
L 126.815 26.558281 
Q 122.415 26.558281 122.415 30.958281 
L 122.415 125.633906 
Q 122.415 130.033906 126.815 130.033906 
z
" style="fill: #ffffff; opacity: 0.8; stroke: #cccccc; stroke-linejoin: miter"/>
    </g>
    <g id="line2d_23">
     <path d="M 131.215 44.374844 
L 153.215 44.374844 
L 175.215 44.374844 
" style="fill: none; stroke: #000000; stroke-linecap: square"/>
    </g>
    <g id="text_22">
     <!-- WHO reference -->
     <g transform="translate(192.815 52.074844)scale(0.22 -0.22)">
      <defs>
       <path id="DejaVuSans-48" d="M 628 4666 
L 1259 4666 
L 1259 2753 
L 3553 2753 
L 3553 4666 
L 4184 4666 
L 4184 0 
L 3553 0 
L 3553 2222 
L 1259 2222 
L 1259 0 
L 628 0 
L 628 4666 
z
" transform="scale(0.015625)"/>
       <path id="DejaVuSans-4f" d="M 2522 4238 
Q 1834 4238 1429 3725 
Q 1025 3213 1025 2328 
Q 1025 1447 1429 934 
Q 1834 422 2522 422 
Q 3209 422 3611 934 
Q 4013 1447 4013 2328 
Q 4013 3213 3611 3725 
Q 3209 4238 2522 4238 
z
M 2522 4750 
Q 3503 4750 4090 4092 
Q 4678 3434 4678 2328 
Q 4678 1225 4090 567 
Q 3503 -91 2522 -91 
Q 1538 -91 948 565 
Q 359 1222 359 2328 
Q 359 3434 948 4092 
Q 1538 4750 2522 4750 
z
" transform="scale(0.015625)"/>
       <path id="DejaVuSans-72" d="M 2631 2963 
Q 2534 3019 2420 3045 
Q 2306 3072 2169 3072 
Q 1681 3072 1420 2755 
Q 1159 2438 1159 1844 
L 1159 0 
L 581 0 
L 581 3500 
L 1159 3500 
L 1159 2956 
Q 1341 3275 1631 3429 
Q 1922 3584 2338 3584 
Q 2397 3584 2469 3576 
Q 2541 3569 2628 3553 
L 2631 2963 
z
" transform="scale(0.015625)"/>
       <path id="DejaVuSans-66" d="M 2375 4863 
L 2375 4384 
L 1825 4384 
Q 1516 4384 1395 4259 
Q 1275 4134 1275 3809 
L 1275 3500 
L 2222 3500 
L 2222 3053 
L 1275 3053 
L 1275 0 
L 697 0 
L 697 3053 
L 147 3053 
L 147 3500 
L 697 3500 
L 697 3744 
Q 697 4328 969 4595 
Q 1241 4863 1831 4863 
L 2375 4863 
z
" transform="scale(0.015625)"/>
       <path id="DejaVuSans-63" d="M 3122 3366 
L 3122 2828 
Q 2878 2963 2633 3030 
Q 2388 3097 2138 3097 
Q 1578 3097 1268 2742 
Q 959 2388 959 1747 
Q 959 1106 1268 751 
Q 1578 397 2138 397 
Q 2388 397 2633 464 
Q 2878 531 3122 666 
L 3122 134 
Q 2881 22 2623 -34 
Q 2366 -91 2075 -91 
Q 1284 -91 818 406 
Q 353 903 353 1747 
Q 353 2603 823 3093 
Q 1294 3584 2113 3584 
Q 2378 3584 2631 3529 
Q 2884 3475 3122 3366 
z
" transform="scale(0.015625)"/>
      </defs>
      <use xlink:href="#DejaVuSans-57"/>
      <use xlink:href="#DejaVuSans-48" x="98.876953"/>
      <use xlink:href="#DejaVuSans-4f" x="174.072266"/>
      <use xlink:href="#DejaVuSans-20" x="252.783203"/>
      <use xlink:href="#DejaVuSans-72" x="284.570312"/>
      <use xlink:href="#DejaVuSans-65" x="323.433594"/>
      <use xlink:href="#DejaVuSans-66" x="384.957031"/>
      <use xlink:href="#DejaVuSans-65" x="420.162109"/>
      <use xlink:href="#DejaVuSans-72" x="481.685547"/>
      <use xlink:href="#DejaVuSans-65" x="520.548828"/>
      <use xlink:href="#DejaVuSans-6e" x="582.072266"/>
      <use xlink:href="#DejaVuSans-63" x="645.451172"/>
      <use xlink:href="#DejaVuSans-65" x="700.431641"/>
     </g>
    </g>
    <g id="line2d_24">
     <path d="M 131.215 76.666719 
L 153.215 76.666719 
L 175.215 76.666719 
" style="fill: none; stroke: #9097a8; stroke-width: 4; stroke-linecap: square"/>
    </g>
    <g id="text_23">
     <!-- STIG-Met male -->
     <g transform="translate(192.815 84.366719)scale(0.22 -0.22)">
      <defs>
       <path id="DejaVuSans-53" d="M 3425 4513 
L 3425 3897 
Q 3066 4069 2747 4153 
Q 2428 4238 2131 4238 
Q 1616 4238 1336 4038 
Q 1056 3838 1056 3469 
Q 1056 3159 1242 3001 
Q 1428 2844 1947 2747 
L 2328 2669 
Q 3034 2534 3370 2195 
Q 3706 1856 3706 1288 
Q 3706 609 3251 259 
Q 2797 -91 1919 -91 
Q 1588 -91 1214 -16 
Q 841 59 441 206 
L 441 856 
Q 825 641 1194 531 
Q 1563 422 1919 422 
Q 2459 422 2753 634 
Q 3047 847 3047 1241 
Q 3047 1584 2836 1778 
Q 2625 1972 2144 2069 
L 1759 2144 
Q 1053 2284 737 2584 
Q 422 2884 422 3419 
Q 422 4038 858 4394 
Q 1294 4750 2059 4750 
Q 2388 4750 2728 4690 
Q 3069 4631 3425 4513 
z
" transform="scale(0.015625)"/>
       <path id="DejaVuSans-54" d="M -19 4666 
L 3928 4666 
L 3928 4134 
L 2272 4134 
L 2272 0 
L 1638 0 
L 1638 4134 
L -19 4134 
L -19 4666 
z
" transform="scale(0.015625)"/>
       <path id="DejaVuSans-49" d="M 628 4666 
L 1259 4666 
L 1259 0 
L 628 0 
L 628 4666 
z
" transform="scale(0.015625)"/>
       <path id="DejaVuSans-47" d="M 3809 666 
L 3809 1919 
L 2778 1919 
L 2778 2438 
L 4434 2438 
L 4434 434 
Q 4069 175 3628 42 
Q 3188 -91 2688 -91 
Q 1594 -91 976 548 
Q 359 1188 359 2328 
Q 359 3472 976 4111 
Q 1594 4750 2688 4750 
Q 3144 4750 3555 4637 
Q 3966 4525 4313 4306 
L 4313 3634 
Q 3963 3931 3569 4081 
Q 3175 4231 2741 4231 
Q 1884 4231 1454 3753 
Q 1025 3275 1025 2328 
Q 1025 1384 1454 906 
Q 1884 428 2741 428 
Q 3075 428 3337 486 
Q 3600 544 3809 666 
z
" transform="scale(0.015625)"/>
       <path id="DejaVuSans-2d" d="M 313 2009 
L 1997 2009 
L 1997 1497 
L 313 1497 
L 313 2009 
z
" transform="scale(0.015625)"/>
       <path id="DejaVuSans-4d" d="M 628 4666 
L 1569 4666 
L 2759 1491 
L 3956 4666 
L 4897 4666 
L 4897 0 
L 4281 0 
L 4281 4097 
L 3078 897 
L 2444 897 
L 1241 4097 
L 1241 0 
L 628 0 
L 628 4666 
z
" transform="scale(0.015625)"/>
       <path id="DejaVuSans-6d" d="M 3328 2828 
Q 3544 3216 3844 3400 
Q 4144 3584 4550 3584 
Q 5097 3584 5394 3201 
Q 5691 2819 5691 2113 
L 5691 0 
L 5113 0 
L 5113 2094 
Q 5113 2597 4934 2840 
Q 4756 3084 4391 3084 
Q 3944 3084 3684 2787 
Q 3425 2491 3425 1978 
L 3425 0 
L 2847 0 
L 2847 2094 
Q 2847 2600 2669 2842 
Q 2491 3084 2119 3084 
Q 1678 3084 1418 2786 
Q 1159 2488 1159 1978 
L 1159 0 
L 581 0 
L 581 3500 
L 1159 3500 
L 1159 2956 
Q 1356 3278 1631 3431 
Q 1906 3584 2284 3584 
Q 2666 3584 2933 3390 
Q 3200 3197 3328 2828 
z
" transform="scale(0.015625)"/>
       <path id="DejaVuSans-6c" d="M 603 4863 
L 1178 4863 
L 1178 0 
L 603 0 
L 603 4863 
z
" transform="scale(0.015625)"/>
      </defs>
      <use xlink:href="#DejaVuSans-53"/>
      <use xlink:href="#DejaVuSans-54" x="63.476562"/>
      <use xlink:href="#DejaVuSans-49" x="124.560547"/>
      <use xlink:href="#DejaVuSans-47" x="154.052734"/>
      <use xlink:href="#DejaVuSans-2d" x="231.542969"/>
      <use xlink:href="#DejaVuSans-4d" x="267.626953"/>
      <use xlink:href="#DejaVuSans-65" x="353.90625"/>
      <use xlink:href="#DejaVuSans-74" x="415.429688"/>
      <use xlink:href="#DejaVuSans-20" x="454.638672"/>
      <use xlink:href="#DejaVuSans-6d" x="486.425781"/>
      <use xlink:href="#DejaVuSans-61" x="583.837891"/>
      <use xlink:href="#DejaVuSans-6c" x="645.117188"/>
      <use xlink:href="#DejaVuSans-65" x="672.900391"/>
     </g>
    </g>
    <g id="line2d_25">
     <path d="M 131.215 108.958594 
L 153.215 108.958594 
L 175.215 108.958594 
" style="fill: none; stroke: #bd9494; stroke-width: 6; stroke-linecap: square"/>
    </g>
    <g id="text_24">
     <!-- infant-WBM male -->
     <g transform="translate(192.815 116.658594)scale(0.22 -0.22)">
      <defs>
       <path id="DejaVuSans-42" d="M 1259 2228 
L 1259 519 
L 2272 519 
Q 2781 519 3026 730 
Q 3272 941 3272 1375 
Q 3272 1813 3026 2020 
Q 2781 2228 2272 2228 
L 1259 2228 
z
M 1259 4147 
L 1259 2741 
L 2194 2741 
Q 2656 2741 2882 2914 
Q 3109 3088 3109 3444 
Q 3109 3797 2882 3972 
Q 2656 4147 2194 4147 
L 1259 4147 
z
M 628 4666 
L 2241 4666 
Q 2963 4666 3353 4366 
Q 3744 4066 3744 3513 
Q 3744 3084 3544 2831 
Q 3344 2578 2956 2516 
Q 3422 2416 3680 2098 
Q 3938 1781 3938 1306 
Q 3938 681 3513 340 
Q 3088 0 2303 0 
L 628 0 
L 628 4666 
z
" transform="scale(0.015625)"/>
      </defs>
      <use xlink:href="#DejaVuSans-69"/>
      <use xlink:href="#DejaVuSans-6e" x="27.783203"/>
      <use xlink:href="#DejaVuSans-66" x="91.162109"/>
      <use xlink:href="#DejaVuSans-61" x="126.367188"/>
      <use xlink:href="#DejaVuSans-6e" x="187.646484"/>
      <use xlink:href="#DejaVuSans-74" x="251.025391"/>
      <use xlink:href="#DejaVuSans-2d" x="290.234375"/>
      <use xlink:href="#DejaVuSans-57" x="322.318359"/>
      <use xlink:href="#DejaVuSans-42" x="421.195312"/>
      <use xlink:href="#DejaVuSans-4d" x="489.798828"/>
      <use xlink:href="#DejaVuSans-20" x="576.078125"/>
      <use xlink:href="#DejaVuSans-6d" x="607.865234"/>
      <use xlink:href="#DejaVuSans-61" x="705.277344"/>
      <use xlink:href="#DejaVuSans-6c" x="766.556641"/>
      <use xlink:href="#DejaVuSans-65" x="794.339844"/>
     </g>
    </g>
   </g>
  </g>
 </g>
 <defs>
  <clipPath id="pb788d0fcc5">
   <rect x="111.415" y="15.558281" width="669.6" height="434.88"/>
  </clipPath>
 </defs>
</svg>
